<?xml version="1.0" encoding="utf-8"?>
<!-- Generator: Adobe Illustrator 19.2.0, SVG Export Plug-In . SVG Version: 6.00 Build 0)  -->
<svg version="1.1" id="Layer_1" xmlns="http://www.w3.org/2000/svg" xmlns:xlink="http://www.w3.org/1999/xlink" x="0px" y="0px"
	 viewBox="0 0 109.2 109.2" style="enable-background:new 0 0 109.2 109.2;" xml:space="preserve">
<style type="text/css">
	.st0{fill:#D95000;}
</style>
<g>
	<g>
		<g>
			<path class="st0" d="M67.6,53.1c0,1.8,1.2,1,2.2,2.5c0.9,1.5-0.2,2.2,0.9,3.8c0.9,1.5,1.8,0.9,2.7,2.4c0.9,1.5,0.8,1.6,1.7,3.1
				c0.9,1.5,1.6,1.1,2.5,2.6c0.9,1.5,0.5,1.8,1.5,3.3c0.9,1.5,0.6,1.8,1.5,3.1c0.9,1.5,0.6,1.7,1.6,3.2c0.9,1.5,2.2,0.8,3.2,2.1
				c0.9,1.5,0.8,1.7,1.6,3.2c0.9,1.5,1.2,1.3,2.1,2.8c0.9,1.5,0.3,2,1.3,3.3c0.9,1.5,2.4,1.4,2.1,3c-0.3,1.8-1.7,0.9-3.2,2
				c-1.5,0.9-2,0.3-3.5,1.4c-1.5,0.9-1.5,1-3,2s-1,3.6-2.7,3.3c-1.8-0.5-0.8-2.4-1.8-3.9S77.1,95,76,93.5s-1.3-1.3-2.4-2.8
				s-1-1.5-2.1-3c-1-1.5,0-2.2-1-3.8c-1.1-1.5-0.9-1.7-1.9-3.2s-1.2-1.3-2.2-2.8s-0.8-1.7-1.8-3.3c-1-1.5-1.4-1.4-2.4-2.9
				c-1-1.5-0.4-2-1.5-3.4c-1-1.5-2.1-0.9-3-2.4c-1-1.5-0.3-2.1-1.2-3.6c-1.1-1.5-2-0.9-3-2.6c-1.1-1.5-1.1-1.5-2.1-3.1
				c-1.1-1.5-0.9-1.5-0.9-3.3c0-1.8,0.9-1.1,1.9-2.7c1.1-1.5,0.9-1.6,2-3.1c1-1.5-0.1-2.4,0.9-3.9c1-1.5,1-1.5,2.1-3
				c1-1.5,1.8-1,2.9-2.5c1-1.5,0.6-1.8,1.6-3.3c1-1.5,0.8-1.8,1.8-3.3s1.8-1.1,2.9-2.6s0.4-1.9,1.5-3.4s1.9-0.9,3-2.4
				c1-1.5,0-2.2,1-3.8s1.5-1.2,2.5-2.9c1-1.5,0.5-1.9,1.5-3.4s1.2-1.3,2.2-3c1-1.5,0.3-2.8,2.1-3.2c1.8-0.4,1.3,1.3,2.8,2.4
				c1.5,0.9,2.1,0.2,3.5,1.1c1.5,0.9,0.9,1.9,2.4,2.8s2.4,0,2.7,1.7c0.3,1.8-1.2,0.9-2.2,2.4c-0.9,1.5,0.1,2.2-0.9,3.8
				c-0.9,1.5-1,1.4-2.1,2.9c-0.9,1.5-1.7,1.1-2.7,2.4c-0.9,1.5-0.2,1.9-1.2,3.4c-0.9,1.5-0.9,1.5-1.8,3c-0.9,1.5-1,1.5-2,2.9
				c-0.9,1.5-1.8,0.9-2.7,2.4c-0.9,1.5-0.8,1.6-1.8,3c-0.9,1.5-0.9,1.5-2,3c-0.9,1.5-0.9,1.5-2,3c-0.9,1.5-0.8,1.6-2,3
				C67.9,51.3,67.6,51.3,67.6,53.1z M27.4,53.1c0,1.8,1.2,1,2.2,2.5c0.9,1.5-0.1,2.2,0.9,3.6c0.9,1.5,1.8,0.9,2.7,2.4
				s0.8,1.6,1.6,3.2c0.9,1.5,1.6,1,2.5,2.5c0.9,1.5,0.5,1.8,1.5,3.3c0.9,1.5,0.6,1.8,1.5,3.2c0.9,1.5,0.6,1.6,1.6,3.1
				c0.9,1.5,2.1,0.8,3.1,2.1c0.9,1.5,0.8,1.6,1.6,3.1s1.2,1.4,2.1,2.9c0.9,1.5,0.3,2,1.4,3.3c0.9,1.5,2.4,1.3,2.1,3
				c-0.3,2-1.6,1.2-3.1,2.1c-1.5,0.9-1.9,0.3-3.3,1.4c-1.5,0.9-1.5,1-3,2c-1.5,0.9-1.1,3.6-2.7,3.3c-1.8-0.5-0.8-2.4-1.8-3.9
				C37.5,94.7,37,95,36,93.5c-1-1.5-1.4-1.3-2.4-2.8c-1-1.5-1-1.5-2.1-3c-1.1-1.5,0-2.2-1.1-3.8s-0.9-1.7-1.9-3.2s-1.2-1.3-2.2-2.8
				s-0.8-1.7-1.8-3.3c-1.1-1.5-1.4-1.4-2.4-2.9c-1.1-1.5-0.4-2-1.5-3.4c-1.1-1.5-2.1-0.9-3-2.4c-1.1-1.5-0.3-2.1-1.4-3.6
				s-1.9-0.9-3-2.6c-1.1-1.5-1.1-1.5-2.1-3.1C10,55.1,10,55.1,10,53.3c0-1.8,0.9-1.1,1.9-2.7c1.1-1.5,0.9-1.6,1.9-3.1
				c1.1-1.5-0.2-2.4,0.9-3.9s1.1-1.5,2.1-3c1.1-1.5,1.8-1,2.8-2.5c1.1-1.5,0.6-1.8,1.7-3.3c1-1.5,0.8-1.6,1.8-3.3
				c1.1-1.5,1.8-1.1,2.9-2.6s0.4-1.9,1.5-3.4s1.9-0.9,3-2.4s0-2.2,1.1-3.8c1.1-1.5,1.5-1.2,2.6-2.9c1-1.5,0.4-1.9,1.5-3.4
				c1-1.5,1.2-1.3,2.2-3c1-1.5,0.3-2.8,2.1-3.2c1.8-0.4,1.4,1.3,2.9,2.4c1.5,0.9,1.9,0.2,3.4,1.1s0.9,1.9,2.4,2.8s2.4,0,2.7,1.7
				c0.3,1.8-1.2,0.9-2.2,2.4c-0.9,1.5,0.1,2.2-0.9,3.6c-0.9,1.5-1.1,1.4-2.1,2.9c-0.9,1.5-1.6,1.1-2.7,2.4c-0.9,1.5-0.1,1.9-1.2,3.4
				c-1.1,1.5-0.9,1.5-1.8,3c-0.9,1.5-1,1.5-1.9,2.9c-0.9,1.5-1.8,0.9-2.7,2.4s-0.8,1.6-1.8,3c-0.9,1.5-0.9,1.5-2,3
				c-0.9,1.5-0.9,1.5-1.9,3c-0.9,1.5-0.8,1.6-1.9,3C27.7,51.3,27.4,51.3,27.4,53.1z"/>
		</g>
	</g>
</g>
</svg>
