<?xml version="1.0" encoding="utf-8"?>
<!-- Generator: Adobe Illustrator 19.2.0, SVG Export Plug-In . SVG Version: 6.00 Build 0)  -->
<svg version="1.1" id="Layer_1" xmlns="http://www.w3.org/2000/svg" xmlns:xlink="http://www.w3.org/1999/xlink" x="0px" y="0px"
	 viewBox="0 0 109.2 109.2" style="enable-background:new 0 0 109.2 109.2;" xml:space="preserve">
<style type="text/css">
	.st0{fill:#D95000;}
</style>
<g>
	<g>
		<g>
			<path class="st0" d="M40.7,53.3c0-1.8-1.2-1-2.2-2.5c-0.9-1.5,0.1-2.2-0.9-3.8c-0.9-1.5-1.8-0.9-2.7-2.4s-0.8-1.6-1.6-3.1
				s-1.6-1.1-2.6-2.6c-0.9-1.5-0.4-1.8-1.5-3.3c-0.9-1.5-0.6-1.8-1.5-3.1c-0.9-1.5-0.6-1.6-1.6-3.1c-0.9-1.5-2.2-0.8-3.1-2.1
				c-0.9-1.5-0.8-1.6-1.6-3.1s-1.2-1.4-2.1-2.9c-0.9-1.5-0.3-1.9-1.3-3.3c-0.9-1.5-2.4-1.3-2.1-3c0.3-1.8,1.7-0.9,3.2-1.9
				c1.5-0.9,1.9-0.3,3.4-1.3c1.5-0.9,1.5-1.1,3-1.9c1.5-0.9,1.1-3.6,2.7-3.3c1.8,0.4,0.8,2.4,1.8,3.9s1.5,1.2,2.5,2.7
				c1.1,1.5,1.4,1.3,2.4,2.8c1.1,1.5,1.1,1.5,2.1,3c1.1,1.5,0,2.2,1.1,3.8c1,1.5,0.9,1.6,1.9,3.1c1.1,1.5,1.2,1.4,2.2,2.9
				c1.1,1.5,0.8,1.6,1.8,3.3c1,1.5,1.4,1.4,2.4,2.9c1,1.5,0.4,2,1.5,3.5c1,1.5,2.1,0.9,3,2.4c1,1.5,0.3,2.1,1.2,3.6
				c1.1,1.5,2,0.9,3,2.5c1.1,1.5,1.1,1.5,2.1,3.1c1.1,1.5,0.9,1.5,0.9,3.3c0,1.8-0.9,1-1.9,2.7c-1.1,1.5-0.9,1.6-2,3.1
				c-1,1.5,0.1,2.4-0.9,3.9c-1,1.5-1,1.5-2.1,3c-1,1.5-1.8,1.1-2.9,2.6c-1,1.5-0.6,1.8-1.6,3.3c-1,1.5-0.8,1.8-1.8,3.3
				c-1.1,1.5-1.8,1-2.9,2.5c-1.1,1.5-0.5,2-1.5,3.5c-1.1,1.5-2,0.9-3,2.4c-1.1,1.5,0,2.2-1.1,3.8c-1,1.5-1.5,1.2-2.5,2.9
				c-1.1,1.5-0.5,2-1.5,3.5c-1.1,1.5-1.2,1.3-2.2,3c-1.1,1.5-0.3,2.8-2.1,3.1c-1.8,0.5-1.4-1.3-2.9-2.4c-1.5-0.9-2.1-0.2-3.4-1
				c-1.5-0.9-0.9-2-2.4-2.9c-1.5-0.9-2.4,0-2.7-1.6c-0.3-1.8,1.2-0.9,2.2-2.4c0.9-1.5-0.1-2.2,0.9-3.8c0.9-1.5,1.1-1.3,2.1-2.8
				c0.9-1.5,1.6-1,2.7-2.4c0.9-1.5,0.1-2,1.2-3.5c0.9-1.5,0.9-1.5,1.8-3c0.9-1.5,1.1-1.5,1.9-2.8c0.9-1.5,1.8-0.9,2.7-2.4
				c0.9-1.5,0.8-1.6,1.8-3c0.9-1.5,0.9-1.5,1.9-3c0.9-1.5,0.9-1.5,2-3c0.9-1.5,0.8-1.6,1.9-3C40.4,55.1,40.7,55.1,40.7,53.3z
				 M80.9,53.3c0-1.8-1.2-1-2.2-2.5c-0.9-1.5,0.1-2.2-0.9-3.6c-0.9-1.5-1.8-0.9-2.7-2.4c-0.9-1.5-0.8-1.6-1.6-3.1
				c-0.9-1.5-1.7-1.1-2.5-2.6c-0.9-1.5-0.5-1.8-1.5-3.3c-0.9-1.5-0.6-1.8-1.5-3.1c-0.9-1.5-0.6-1.6-1.7-3.1
				c-0.9-1.5-2.1-0.8-3.1-2.1c-0.9-1.5-0.8-1.6-1.6-3.1s-1.2-1.4-2.1-2.9c-0.9-1.5-0.3-1.9-1.4-3.3c-0.9-1.5-2.4-1.3-2.1-3
				c0.3-1.8,1.6-0.9,3.1-1.9c1.5-0.9,2-0.3,3.3-1.3c1.5-0.9,1.5-1.1,3-1.9c1.5-0.9,1.1-3.6,2.7-3.3c1.8,0.4,0.8,2.4,1.8,3.9
				s1.5,1.2,2.5,2.7s1.4,1.3,2.4,2.8s1,1.5,2.1,3c1,1.5,0,2.2,1,3.8s0.9,1.6,2,3.1c1,1.5,1.2,1.4,2.2,2.9s0.8,1.6,1.8,3.3
				c1,1.5,1.4,1.4,2.4,2.9s0.5,2,1.5,3.5s2.1,0.9,3,2.4c1,1.5,0.3,2.1,1.3,3.6c1,1.5,2,0.9,3,2.5c1,1.5,1,1.5,2.1,3.1
				c1,1.5,1,1.5,1,3.3c0,1.8-0.9,1-2,2.7c-1,1.5-0.9,1.6-2,3.1c-1,1.5,0.1,2.4-0.9,3.9c-1,1.5-1,1.5-2.1,3c-1,1.5-1.8,1-2.9,2.5
				c-1,1.5-0.6,1.8-1.6,3.3s-0.8,1.7-1.8,3.3c-1,1.5-1.8,1-2.9,2.5c-1,1.5-0.5,2-1.5,3.5s-2,0.9-3,2.4s0,2.2-1,3.8s-1.5,1.2-2.5,2.8
				c-1,1.5-0.5,2-1.5,3.5s-1.2,1.4-2.2,3c-1,1.5-0.3,2.9-2.1,3.2c-1.8,0.5-1.4-1.4-2.9-2.4c-1.5-0.9-1.9-0.1-3.4-1
				c-1.5-0.9-0.9-2-2.4-2.8c-1.5-0.9-2.4,0-2.7-1.7c-0.3-1.8,1.2-0.9,2.2-2.4c0.9-1.5-0.1-2.2,0.9-3.6c0.9-1.5,1.1-1.3,2.1-2.8
				c0.9-1.5,1.6-1,2.7-2.4c0.9-1.5,0.2-2,1.2-3.5c0.9-1.5,0.9-1.5,1.8-3c0.9-1.5,1-1.5,2-2.8c0.9-1.5,1.8-0.9,2.7-2.4
				c0.9-1.5,0.8-1.6,1.8-3c0.9-1.5,0.9-1.5,2-3c0.9-1.5,0.9-1.5,2-3c0.9-1.5,0.8-1.6,2-3C80.6,55.1,80.9,55.1,80.9,53.3z"/>
		</g>
	</g>
</g>
</svg>
