<?xml version="1.0" encoding="utf-8"?>
<!-- Generator: Adobe Illustrator 19.2.0, SVG Export Plug-In . SVG Version: 6.00 Build 0)  -->
<svg version="1.1" id="Layer_1" xmlns="http://www.w3.org/2000/svg" xmlns:xlink="http://www.w3.org/1999/xlink" x="0px" y="0px"
	 viewBox="0 0 80 80" style="enable-background:new 0 0 80 80;" xml:space="preserve">
<style type="text/css">
	.st0{fill:#D95000;}
</style>
<g>
	<g>
		<g>
			<path class="st0" d="M39.8,42.6c1.2,0,0.7-0.8,1.7-1.5c1-0.6,1.5,0.1,2.4-0.6c1-0.6,0.6-1.2,1.6-1.8s1.1-0.5,2.1-1.1
				s0.7-1.1,1.7-1.7c1-0.6,1.2-0.3,2.2-1c1-0.6,1.2-0.4,2.1-1c1-0.6,1.1-0.4,2.1-1.1c1-0.6,0.5-1.4,1.4-2.1c1-0.6,1.1-0.5,2.1-1.1
				s0.9-0.8,1.9-1.4c1-0.6,1.3-0.2,2.2-0.9c1-0.6,0.9-1.6,2-1.4c1.3,0.2,0.8,1.1,1.4,2.1s0.2,1.3,0.9,2.2c0.6,1,0.7,1,1.3,2
				c0.6,1,2.4,0.7,2.2,1.8c-0.3,1.2-1.6,0.5-2.6,1.2s-0.8,1-1.8,1.7s-0.9,0.9-1.9,1.6c-1,0.7-1,0.7-2,1.4s-1.5,0-2.5,0.7
				s-1.1,0.6-2.1,1.3s-0.9,0.8-1.9,1.5s-1.1,0.5-2.2,1.2c-1,0.7-0.9,0.9-1.9,1.6c-1,0.7-1.3,0.3-2.3,1c-1,0.7-0.6,1.4-1.6,2
				c-1,0.7-1.4,0.2-2.4,0.9s-0.6,1.3-1.7,2c-1,0.7-1,0.7-2.1,1.4c-1,0.7-1,0.7-2.2,0.7s-0.7-0.6-1.8-1.3c-1-0.7-1.1-0.6-2.1-1.3
				s-1.6,0.1-2.6-0.6s-1-0.7-2-1.4c-1-0.7-0.7-1.2-1.7-1.9c-1-0.7-1.2-0.4-2.2-1.1c-1-0.7-1.1-0.5-2.2-1.2c-1-0.7-0.7-1.2-1.7-1.9
				s-1.3-0.3-2.3-1s-0.6-1.3-1.6-2s-1.5,0-2.5-0.7s-0.8-1-1.9-1.7c-1-0.7-1.3-0.3-2.3-1s-0.9-0.8-2-1.5c-1-0.7-1.9-0.2-2.1-1.4
				c-0.3-1.2,0.9-0.9,1.6-1.9c0.6-1,0.1-1.3,0.7-2.3s1.3-0.6,1.9-1.6s0-1.6,1.1-1.8c1.2-0.2,0.6,0.8,1.6,1.5c1,0.6,1.5-0.1,2.4,0.6
				c1,0.6,0.9,0.7,1.9,1.4c1,0.6,0.7,1.1,1.6,1.8c1,0.6,1.3,0.1,2.3,0.8c1,0.7,1,0.6,2,1.2c1,0.6,1,0.7,1.9,1.3
				c1,0.6,0.6,1.2,1.6,1.8s1.1,0.5,2,1.2c1,0.6,1,0.6,2,1.3c1,0.6,1,0.6,2,1.3c1,0.6,1.1,0.5,2,1.3C38.6,42.4,38.6,42.6,39.8,42.6z"
				/>
		</g>
	</g>
</g>
</svg>
