<?xml version="1.0" encoding="utf-8"?>
<!-- Generator: Adobe Illustrator 19.2.0, SVG Export Plug-In . SVG Version: 6.00 Build 0)  -->
<svg version="1.1" id="Layer_1" xmlns="http://www.w3.org/2000/svg" xmlns:xlink="http://www.w3.org/1999/xlink" x="0px" y="0px"
	 viewBox="0 0 10.9 13.8" style="enable-background:new 0 0 10.9 13.8;" xml:space="preserve">
<style type="text/css">
	.st0{fill:#D75327;}
</style>
<g>
	<path class="st0" d="M5.5,0C5.3,0,5.2,0,5.1,0c-0.4,0-0.6,0.1-0.7,0.1c-0.1,0-0.1,0-0.2,0l0,0c-0.1,0-0.5,0.1-0.5,0.1
		c0,0,0,0-0.1,0s-0.1,0-0.2,0.1c0,0-0.1,0-0.1,0l0,0c0,0-0.1,0-0.2,0.1c-0.1,0-0.1,0.1-0.1,0.1l0,0c0,0-0.4,0.2-0.4,0.2
		c0,0-0.1,0.1-0.1,0.1l0,0c0,0-0.1,0.1-0.2,0.1C2.3,1,2.2,1.1,2.1,1.1C2,1.2,2,1.2,1.9,1.3c0,0-0.1,0.1-0.2,0.2
		C1.6,1.6,1.5,1.7,1.4,1.8c0,0-0.2,0.2-0.3,0.4C1.1,2.2,1,2.3,1,2.3c0,0-0.1,0.2-0.2,0.3S0.7,2.8,0.7,2.8c0,0-0.1,0.2-0.1,0.2l0,0
		c0,0,0,0,0,0c0,0,0,0.1-0.1,0.1c0,0.1-0.1,0.2-0.1,0.2s0,0.1-0.1,0.2c0,0.1-0.1,0.4-0.2,0.7c0,0.1-0.1,0.2-0.1,0.2
		c0,0-0.1,0.6-0.1,1c0,0.4,0.1,1,0.1,1c0,0,0,0.2,0.1,0.3c0,0.2,0.2,0.8,0.3,0.9c0,0,0.1,0.1,0.1,0.1c0,0.1,0.2,0.5,0.3,0.5
		c0,0,0,0.1,0.1,0.1C0.9,8.5,1,8.6,1,8.7c0.1,0.1,0.1,0.1,0.2,0.2C1.3,9,1.5,9.2,1.5,9.3c0,0,0.1,0.1,0.2,0.1
		c0.1,0.1,0.1,0.1,0.2,0.2c0.1,0.1,0.2,0.1,0.2,0.2c0.1,0.1,0.2,0.1,0.2,0.1c0,0,0,0,0.1,0.1c0,0,0.1,0.1,0.1,0.1
		c0,0,0.1,0.1,0.1,0.1c0,0,0,0,0.1,0.1s0.2,0.1,0.3,0.1c0.1,0.1,0.2,0.1,0.2,0.1c0,0,0.2,0.1,0.5,0.2c0.1,0,0.2,0.1,0.3,0.1
		c0.1,0,0.2,0.1,0.2,0.1c0.1,0,0.2,0,0.2,0c0.1,0,0.6,0.1,0.9,0.1c0,0,0.1,0,0.1,0c0.3,0,0.9,0,1.1-0.1c0.1,0,0.2,0,0.2,0
		c0.2,0,0.9-0.2,1-0.3c0,0,0.1-0.1,0.2-0.1c0.2-0.1,0.4-0.2,0.4-0.2c0,0,0.1,0,0.1-0.1c0,0,0.1-0.1,0.1-0.1c0,0,0.1-0.1,0.1-0.1l0,0
		c0,0,0.1-0.1,0.2-0.2C9,9.6,9.1,9.5,9.2,9.5c0.2-0.2,0.3-0.2,0.4-0.4C9.7,9,9.7,8.9,9.7,8.9C9.8,8.8,9.9,8.6,10,8.5
		c0-0.1,0.2-0.3,0.2-0.3c0,0,0.1-0.1,0.1-0.1c0-0.1,0.1-0.2,0.1-0.3c0.1-0.1,0.1-0.2,0.2-0.6c0-0.1,0.1-0.2,0.1-0.3c0,0,0-0.1,0-0.1
		c0,0,0-0.1,0-0.2c0-0.1,0.1-0.3,0.1-0.5c0-0.3,0-0.4,0-0.8c0-0.5,0-0.7-0.1-1c0-0.1,0-0.2,0-0.2s0-0.1,0-0.1c0,0,0-0.1-0.1-0.3
		c0-0.1-0.1-0.2-0.1-0.2c0-0.1-0.1-0.1-0.1-0.2c0,0,0-0.1-0.1-0.2c0,0-0.1-0.1-0.1-0.1c0-0.1-0.1-0.3-0.2-0.4
		C10.1,2.6,10,2.5,10,2.5C10,2.3,9.8,2.2,9.7,2C9.6,2,9.6,1.9,9.5,1.9c0-0.1-0.3-0.3-0.3-0.4c0,0-0.1-0.1-0.2-0.1
		C9,1.3,8.9,1.2,8.8,1.2S8.7,1.1,8.7,1.1C8.6,1.1,8.6,1,8.5,1c-0.1,0-0.1-0.1-0.2-0.1C8.3,0.8,7.9,0.6,7.8,0.6c0,0-0.1,0-0.1-0.1
		c-0.1,0-0.1-0.1-0.2-0.1c0,0-0.1,0-0.1,0c0,0-0.1,0-0.1,0c0,0-0.1,0-0.1,0C7.1,0.3,6.9,0.2,6.7,0.2c-0.1,0-0.2,0-0.2,0
		c0,0-0.1,0-0.2,0c-0.1,0-0.2,0-0.3,0C5.9,0,5.7,0,5.5,0z"/>
</g>
</svg>
