<?xml version="1.0" encoding="utf-8"?>
<!-- Generator: Adobe Illustrator 19.2.0, SVG Export Plug-In . SVG Version: 6.00 Build 0)  -->
<svg version="1.1" id="Layer_1" xmlns="http://www.w3.org/2000/svg" xmlns:xlink="http://www.w3.org/1999/xlink" x="0px" y="0px"
	 viewBox="0 0 109.2 109.2" style="enable-background:new 0 0 109.2 109.2;" xml:space="preserve">
<style type="text/css">
	.st0{fill:#FFFFFF;}
	.st1{fill:#D75327;}
</style>
<g>
	<path class="st0" d="M56.2,19.9c0.3,0.2,0.9,0.6,1.4,0.8c0.5,0.2,1,0.5,1.1,0.7c0.1,0.1,0.8,0.7,1.6,1.2c0.8,0.5,1.6,1.1,1.9,1.4
		c0.3,0.2,0.9,0.5,1.3,0.7c1.1,0.5,2.7,1.5,3.4,2.2c0.3,0.3,0.8,0.6,1.1,0.7c0.7,0.2,2.9,1.5,2.9,1.8c0,0.1,0.3,0.3,0.6,0.5
		c0.9,0.4,2.4,1.3,3.2,2c0.9,0.7,1.9,1.3,3.3,2.1c2.1,1.1,4,2.3,4.9,3.2c0.1,0.1,0.7,0.5,1.3,0.7c1,0.5,1.5,1.1,1,1.4
		c-0.1,0.1-3,0.2-6.3,0.2c-9,0.1-54.9-0.3-55.3-0.5c-0.5-0.2-0.1-0.9,1-1.4c0.5-0.2,1-0.5,1.1-0.7c0.4-0.5,1.9-1.5,3-2
		c0.5-0.2,0.9-0.4,0.9-0.5c0-0.2,0.5-0.4,3.3-1.8c0.6-0.3,1.3-0.7,1.5-0.8c0.6-0.5,5.4-3.6,6.9-4.4c0.5-0.2,0.9-0.5,1-0.7
		c0.2-0.3,1.1-0.9,2.8-1.7c0.6-0.3,1.3-0.7,1.7-1.1c0.4-0.3,1-0.6,1.2-0.7c0.3-0.1,0.8-0.4,1.1-0.6c0.3-0.3,0.7-0.5,0.8-0.5
		s0.6-0.3,1-0.8C52.6,19.7,55.1,19.1,56.2,19.9z"/>
</g>
<g>
	<path class="st0" d="M23.1,39.8c0.2,0,0.5,0.3,0.7,0.6c0.1,0.3,0.5,0.7,0.9,0.8c0.3,0.2,0.8,0.5,1,0.7c0.2,0.2,0.8,0.6,1.2,0.8
		c0.8,0.4,6.1,3.6,6.9,4.1c0.2,0.1,0.6,0.4,0.9,0.6c1.1,0.8,2.5,1.8,3,1.9c0.2,0.1,0.7,0.4,1.1,0.6c0.3,0.2,1,0.7,1.6,1
		c0.5,0.3,1.1,0.7,1.2,0.8c0.1,0.1,0.7,0.5,1.3,0.7c0.5,0.3,1.4,0.8,1.8,1.2c0.4,0.4,1.1,0.7,1.4,0.8c0.3,0.1,0.8,0.4,1,0.6
		c0.3,0.3,0.6,0.5,0.8,0.5c0.2,0,0.8,0.4,1.2,0.8c0.5,0.5,1,0.8,1.1,0.8c0.1,0,0.6,0.3,1.1,0.7c0.6,0.5,1.2,0.8,2.2,1
		c1.7,0.3,2.5,0.2,3.9-0.7c0.6-0.4,1.2-0.7,1.4-0.8c0.2-0.1,0.8-0.5,1.3-0.9c0.5-0.4,1.1-0.9,1.3-0.9c0.2-0.1,0.7-0.3,1-0.6
		c0.3-0.3,0.8-0.5,1-0.5c0.2,0,0.7-0.2,1-0.5c0.3-0.3,1-0.8,1.6-1.1c0.6-0.4,1.2-0.7,1.2-0.8c0.1-0.1,0.6-0.4,1.2-0.7
		s1.6-0.8,2.1-1.2c0.5-0.4,1-0.7,1.1-0.7c0.1,0,0.6-0.3,1-0.6c0.4-0.3,0.9-0.6,1-0.6c0.2,0,0.6-0.3,1.7-1.2c0.1-0.1,0.3-0.2,0.4-0.2
		c0.1,0,0.4-0.2,0.8-0.5c0.3-0.3,1.5-0.9,2.5-1.5c1-0.5,2.1-1.2,2.5-1.4c0.3-0.3,0.7-0.5,0.8-0.5c0.1,0,0.5-0.3,0.8-0.6
		c0.4-0.3,0.9-0.7,1.1-0.7c0.3-0.1,0.8-0.4,1.2-0.8c0.8-0.8,1.3-0.9,1.7-0.2c0.3,0.5,0.3,1.8,0.2,15.4C87.2,65,87.1,71.8,87,72.8
		c-0.2,1.5-0.3,1.7-1.2,2.7c-0.5,0.6-1,1.1-1.1,1.1c-0.1,0-0.3,0.2-0.6,0.4c-0.2,0.2-1.2,0.6-2,0.8c-1.6,0.4-2.1,0.4-28.3,0.2
		c-25.8-0.2-26.7-0.2-27.7-0.6c-0.5-0.2-1.1-0.5-1.2-0.6c-0.1-0.1-0.6-0.5-1.1-0.8c-1.5-1.2-2-1.9-2.2-3.7
		c-0.3-2.1-0.1-31.2,0.2-31.7C22,40,22.6,39.8,23.1,39.8z"/>
</g>
<g>
	<path class="st1" d="M54.9,19.5c0.5,0,1,0.1,1.3,0.4c0.3,0.2,0.9,0.6,1.4,0.8c0.5,0.2,1,0.5,1.1,0.7c0.1,0.1,0.8,0.7,1.6,1.2
		c0.8,0.5,1.6,1.1,1.9,1.4c0.3,0.2,0.9,0.5,1.3,0.7c1.1,0.5,2.7,1.5,3.4,2.2c0.3,0.3,0.8,0.6,1.1,0.7c0.7,0.2,2.9,1.5,2.9,1.8
		c0,0.1,0.3,0.3,0.6,0.5c0.9,0.4,2.4,1.3,3.2,2c0.9,0.7,1.9,1.3,3.3,2.1c2.1,1.1,4,2.3,4.9,3.2c0.1,0.1,0.7,0.5,1.3,0.7
		c1,0.5,1.5,1.1,1,1.4c-0.1,0.1-3,0.2-6.3,0.2c-1.2,0-3,0-5.3,0c-15,0-49.6-0.3-50-0.5c-0.5-0.2-0.1-0.9,1-1.4
		c0.5-0.2,1-0.5,1.1-0.7c0.4-0.5,1.9-1.5,3-2c0.5-0.2,0.9-0.4,0.9-0.5c0-0.2,0.5-0.4,3.3-1.8c0.6-0.3,1.3-0.7,1.5-0.8
		c0.6-0.5,5.4-3.6,6.9-4.4c0.5-0.2,0.9-0.5,1-0.7c0.2-0.3,1.1-0.9,2.8-1.7c0.6-0.3,1.3-0.7,1.7-1.1c0.4-0.3,1-0.6,1.2-0.7
		c0.3-0.1,0.8-0.4,1.1-0.6c0.3-0.3,0.7-0.5,0.8-0.5h0c0.1,0,0.6-0.3,1-0.8C52.1,20.2,53.7,19.5,54.9,19.5z M22.9,39.8
		c0.1,0,0.1,0,0.2,0c0.2,0,0.5,0.3,0.7,0.6c0.1,0.3,0.5,0.7,0.9,0.8c0.3,0.2,0.8,0.5,1,0.7c0.2,0.2,0.8,0.6,1.2,0.8
		c0.8,0.4,6.1,3.6,6.9,4.1c0.2,0.1,0.6,0.4,0.9,0.6c1.1,0.8,2.5,1.8,3,1.9c0.2,0.1,0.7,0.4,1.1,0.6c0.3,0.2,1,0.7,1.6,1
		c0.5,0.3,1.1,0.7,1.2,0.8c0.1,0.1,0.7,0.5,1.3,0.7c0.5,0.3,1.4,0.8,1.8,1.2c0.4,0.4,1.1,0.7,1.4,0.8c0.3,0.1,0.8,0.4,1,0.6
		c0.3,0.3,0.6,0.5,0.8,0.5c0.2,0,0.8,0.4,1.2,0.8c0.5,0.5,1,0.8,1.1,0.8c0.1,0,0.6,0.3,1.1,0.7c0.6,0.5,1.2,0.8,2.2,1
		c0.5,0.1,1,0.2,1.4,0.2c0.9,0,1.6-0.3,2.5-0.9c0.6-0.4,1.2-0.7,1.4-0.8c0.2-0.1,0.8-0.5,1.3-0.9c0.5-0.4,1.1-0.9,1.3-0.9
		c0.2-0.1,0.7-0.3,1-0.6c0.3-0.3,0.8-0.5,1-0.5h0c0.2,0,0.7-0.2,1-0.5c0.3-0.3,1-0.8,1.6-1.1c0.6-0.4,1.2-0.7,1.2-0.8
		c0.1-0.1,0.6-0.4,1.2-0.7s1.6-0.8,2.1-1.2c0.5-0.4,1-0.7,1.1-0.7h0c0.1,0,0.6-0.3,1-0.6c0.4-0.3,0.9-0.6,1-0.6h0
		c0.2,0,0.6-0.3,1.7-1.2c0.1-0.1,0.3-0.2,0.4-0.2h0c0.1,0,0.4-0.2,0.8-0.5c0.3-0.3,1.5-0.9,2.5-1.5c1-0.5,2.1-1.2,2.5-1.4
		c0.3-0.3,0.7-0.5,0.8-0.5h0c0.1,0,0.5-0.3,0.8-0.6c0.4-0.3,0.9-0.7,1.1-0.7c0.3-0.1,0.8-0.4,1.2-0.8c0.4-0.4,0.8-0.7,1.1-0.7
		c0.3,0,0.5,0.2,0.7,0.5c0.3,0.5,0.3,1.8,0.2,15.4C87.2,65,87.1,71.8,87,72.8c-0.2,1.5-0.3,1.7-1.2,2.7c-0.5,0.6-1,1.1-1.1,1.1h0
		c-0.1,0-0.3,0.2-0.6,0.4c-0.2,0.2-1.2,0.6-2,0.8c-0.9,0.2-1.4,0.3-6.6,0.3c-3.9,0-10.4-0.1-21.7-0.2c-25.8-0.2-26.7-0.2-27.7-0.6
		c-0.5-0.2-1.1-0.5-1.2-0.6c-0.1-0.1-0.6-0.5-1.1-0.8c-1.5-1.2-2-1.9-2.2-3.7c-0.3-2.1-0.1-31.2,0.2-31.7
		C22,40.1,22.4,39.8,22.9,39.8z M55.3,0c-0.5,0-1.9,0.1-3.3,0.1c-4,0.3-7.8,0.7-8,0.9c-0.1,0.1-0.8,0.3-1.6,0.5
		c-0.8,0.2-1.9,0.4-2.3,0.6c-0.4,0.2-1.2,0.4-1.8,0.5c-0.9,0.2-2.7,0.8-5.8,2c-0.8,0.3-1.7,0.7-2.1,0.8c-0.3,0.1-0.7,0.3-0.7,0.4
		c0,0.1-0.4,0.4-1,0.6c-1.3,0.6-1.2,0.5-2.8,1.6c-0.7,0.5-1.4,1-1.5,1h0c-0.2,0-2.2,1.4-2.8,1.9c-0.4,0.3-1.4,1.2-2.3,1.9
		c-2,1.6-3.3,2.8-4.3,4c-0.4,0.5-1.3,1.5-2,2.2c-0.7,0.7-1.3,1.3-1.3,1.4c0,0.1-0.5,0.8-1.1,1.6C10,22.9,9.4,23.7,9.3,24
		c-0.1,0.2-0.4,0.8-0.7,1.2C8.3,25.5,8,26,8,26.1c0,0.1-0.3,0.5-0.6,0.9c-0.3,0.3-0.7,0.9-0.7,1.2c-0.1,0.3-0.4,1-0.7,1.6
		c-1.9,3.9-2.6,5.4-3.1,7.2c-0.2,0.6-0.4,1.2-0.4,1.2c-0.2,0.2-0.7,1.5-0.9,2.5c-0.1,0.5-0.4,1.7-0.6,2.6c-0.7,3-1,5.7-1,11
		c0,5.3,0.3,9.9,0.9,11.8c0.2,0.6,0.3,1.2,0.3,1.5c0,0.6,0.8,3.2,1,3.3c0.1,0,0.2,0.2,0.2,0.4c0,0.2,0.3,1,0.7,1.9
		c0.4,0.9,0.7,1.7,0.7,1.9c0,0.2,0.3,0.9,0.7,1.7c0.4,0.8,1,2.1,1.4,3c0.4,0.9,1.2,2.3,1.8,3.2c0.6,0.9,1.2,1.8,1.4,2.1
		c0.2,0.3,0.7,1.1,1.2,1.7c0.5,0.7,1.1,1.5,1.3,1.8c0.2,0.4,0.5,0.7,0.6,0.7c0.1,0,0.7,0.6,1.2,1.4c1.1,1.5,3.4,4,3.7,4
		c0.1,0,0.8,0.6,1.6,1.3c0.7,0.7,1.5,1.3,1.6,1.4c0.1,0.1,0.3,0.3,0.4,0.5c0.2,0.3,1.9,1.5,2.9,2.1c1.6,0.9,2.9,1.7,3.2,2
		c0.1,0.2,0.4,0.3,0.6,0.3c0.2,0,0.4,0.1,0.4,0.2c0.1,0.2,4.6,2.6,5.3,2.8c0.3,0.1,1.1,0.4,1.7,0.7c0.6,0.3,1.7,0.6,2.3,0.8
		c1.6,0.4,2.9,0.8,2.9,1c0,0.1,0.2,0.2,0.5,0.2c0.3,0,1.2,0.2,2,0.3c3.3,0.7,7.8,1.1,12.1,1.1c4,0,7.9-0.3,10.5-0.9
		c0.7-0.2,1.5-0.3,1.8-0.3c0,0,0,0,0,0c0,0,0,0,0,0c0.3,0,0.6-0.1,0.6-0.2c0-0.1,0.2-0.2,0.4-0.2c0,0,0,0,0,0c0,0,0,0,0,0
		c0.4,0,1-0.2,3.9-1.1c3.3-1.1,3.8-1.3,4.3-1.6c0.3-0.2,1.3-0.7,2.2-1.1c0.9-0.4,1.7-0.8,1.7-0.9c0-0.1,0.1-0.2,0.3-0.2h0
		c0.2,0,0.4-0.2,0.6-0.4c0.2-0.2,0.8-0.6,1.4-0.9c2.7-1.4,5.3-3.1,5.3-3.6c0-0.1,0.1-0.2,0.3-0.2h0c0.1,0,0.6-0.3,1-0.7
		c0.4-0.4,1-1,1.5-1.3c2.1-1.5,6.4-6.3,7.1-7.8c0.1-0.2,0.4-0.6,0.7-0.7c0.3-0.2,0.7-0.7,0.9-1.1c0.2-0.4,0.7-1.2,1-1.7
		c0.3-0.5,0.9-1.4,1.2-2c0.3-0.6,0.8-1.3,0.9-1.6c0.2-0.3,0.5-0.8,0.6-1.2c0.1-0.4,0.3-0.8,0.4-0.8c0.2-0.2,1.2-2.4,1.2-2.7
		c0-0.1,0.2-0.7,0.5-1.3c0.6-1.1,1.4-3.8,1.9-5.9c0.2-0.8,0.4-2,0.6-2.6c0.1-0.7,0.4-2.2,0.6-3.5c0.2-1.2,0.4-2.3,0.5-2.4
		c0.3-0.2,0.4-10.5,0.1-10.7c-0.1-0.1-0.3-1-0.4-2c-0.1-1-0.4-2.6-0.6-3.5c-0.2-0.9-0.4-1.9-0.4-2.2c0-0.3-0.2-1-0.3-1.4
		c-0.2-0.4-0.5-1.5-0.7-2.2c-0.2-0.8-0.6-1.8-0.8-2.3c-0.2-0.5-0.5-1.3-0.7-1.9c-0.2-0.5-0.5-1.2-0.8-1.5s-0.5-0.7-0.6-1
		c-0.3-1-2.2-4.8-2.8-5.7c-0.4-0.5-0.7-1.1-0.8-1.3c-0.1-0.2-0.4-0.7-0.8-1.1c-0.4-0.4-1-1.1-1.3-1.7C97.5,21,97,20.3,96.7,20
		c-0.3-0.3-1.4-1.5-2.3-2.6c-1-1.1-2-2.2-2.3-2.4c-0.2-0.2-1-0.9-1.6-1.4c-0.6-0.5-1.4-1.1-1.7-1.3c-0.3-0.2-0.7-0.5-0.9-0.7
		c-0.4-0.6-1.9-1.7-2.6-2c-0.4-0.1-0.8-0.4-1-0.6c-0.1-0.2-0.4-0.3-0.5-0.3S83,8.3,82.5,7.9C81.8,7.4,81.3,7,81.1,7
		s-0.5-0.3-0.9-0.6c-0.4-0.3-1.1-0.7-1.6-0.8c-0.5-0.1-1.1-0.4-1.4-0.6c-0.7-0.4-2.7-1.2-5.2-1.9c-1.1-0.3-2.3-0.7-2.6-0.8
		c-0.3-0.1-1.3-0.4-2.1-0.5c-0.8-0.2-1.6-0.4-1.6-0.5c-0.1-0.1-1-0.3-2-0.4c-1-0.1-2-0.3-2.2-0.3c-0.3-0.1-2.3-0.3-6-0.5
		C55.4,0,55.3,0,55.3,0z"/>
</g>
</svg>
