<?xml version="1.0" encoding="utf-8"?>
<!-- Generator: Adobe Illustrator 19.2.0, SVG Export Plug-In . SVG Version: 6.00 Build 0)  -->
<svg version="1.1" id="Layer_1" xmlns="http://www.w3.org/2000/svg" xmlns:xlink="http://www.w3.org/1999/xlink" x="0px" y="0px"
	 viewBox="0 0 109.2 109.2" style="enable-background:new 0 0 109.2 109.2;" xml:space="preserve">
<style type="text/css">
	.st0{fill:#010101;}
	.st1{fill:#D75327;}
	.st2{fill:#FFFFFF;}
</style>
<g>
	<path class="st0" d="M29.1,25.3c0.1,0.1,0.1,0.8,0,1.8c-0.2,1.4-0.4,58.2-0.3,59.7c0.1,0.9-0.3,1.2-1.4,0.8c-1-0.3-2.1-1.3-2.6-2.1
		c-0.2-0.5-0.3-4.6-0.1-29.2l0.2-28.6l0.5-0.8C26.1,25.8,28.4,24.7,29.1,25.3z"/>
</g>
<g>
	<path class="st1" d="M54.9-0.1c-1.7,0-3.3,0-4.3,0.1c-3.9,0.4-5.7,0.6-6.7,0.9c-0.5,0.2-1.3,0.3-1.6,0.3l0,0
		c-0.6,0-4.5,1.2-4.7,1.4c-0.1,0.1-0.4,0.2-0.8,0.3s-1.1,0.3-1.5,0.5s-0.9,0.4-1,0.4l0,0c-0.2,0-0.8,0.3-1.5,0.6
		C32.2,4.7,31.5,5,31.4,5l0,0c-0.4,0-4,1.8-4.5,2.3c-0.3,0.3-0.6,0.5-0.7,0.5l0,0c0,0-1,0.6-2.1,1.4c-1.1,0.7-2.5,1.7-3.1,2.1
		s-1.4,1-1.7,1.3c-0.3,0.3-1.1,1.1-1.8,1.7c-1.6,1.3-2.8,2.5-3.2,3.3c-0.4,0.5-1.7,2.1-3,3.6c-0.5,0.5-1.1,1.3-1.3,1.7
		s-1.1,1.7-1.8,2.8c-0.7,1.1-1.3,2.1-1.3,2.2c0,0.4-0.7,1.7-0.9,1.7l0,0c-0.1,0-0.2,0.1-0.2,0.3c0,0.1-0.3,0.8-0.7,1.4
		c-0.4,0.6-0.8,1.5-0.9,2S3.7,34.6,3.5,35c-0.5,0.9-1.3,3.6-2,6.9C1.3,43,1,44.1,0.9,44.1c-0.3,0.2-0.9,6-0.9,9.8
		C0,57.6,0.5,64,0.8,64.3c0.2,0.1,0.5,1.6,0.8,3.2c0.3,1.9,2.5,8.3,3.2,9.3C5,77.1,5.3,77.6,5.4,78c0.3,0.8,2.4,4.7,2.7,5.2
		c0.2,0.2,0.5,0.8,0.8,1.3c0.2,0.5,0.9,1.5,1.5,2.1s1.3,1.5,1.6,1.9c1.2,1.8,2.9,3.9,3.4,4.2c0.3,0.2,1,0.8,1.6,1.3
		c0.5,0.5,1.4,1.3,1.9,1.8s1.6,1.4,2.5,2c0.9,0.7,1.6,1.3,1.6,1.4s0.3,0.3,0.6,0.5c0.4,0.1,1,0.5,1.4,0.8s0.8,0.5,1,0.5
		c0.1,0,0.5,0.2,0.8,0.5s1.5,0.9,2.7,1.5c1.2,0.5,2.3,1.2,2.4,1.4c0.3,0.4,2.2,1.2,4.5,1.9c0.7,0.2,1.9,0.6,2.6,0.8
		c0.7,0.2,1.8,0.5,2.4,0.5c0.6,0.1,1.6,0.3,2.1,0.4c1,0.3,5.5,0.8,9.2,1.1c0.4,0,0.8,0,1.3,0c3.2,0,8.8-0.5,10.8-1
		c0.6-0.2,1.6-0.3,2.1-0.4c2.4-0.3,8.9-2.3,10-3.2c0.3-0.3,1.4-0.8,2.4-1.3c1.9-0.9,3.9-2,4.3-2.3c0.2-0.1,0.6-0.4,1-0.6
		s1-0.6,1.4-1s0.8-0.7,0.9-0.7l0,0c0.1,0,1-0.7,2-1.6c1-0.8,2.3-2,2.9-2.5c2.1-1.8,2.8-2.5,4-4.1c0.7-0.9,1.3-1.7,1.3-1.7
		c0.6-0.6,2.3-2.7,2.7-3.4c0.5-0.9,2-3.3,2.3-3.4c0.1-0.1,0.5-0.8,0.8-1.5c0.4-0.8,0.9-2,1.3-2.6c0.6-1.2,0.9-2.1,2.2-5.7
		c0.4-1.1,0.8-2.3,1-2.7c0.2-0.3,0.3-0.9,0.3-1.1c0-0.3,0.1-1,0.3-1.6c0.2-0.7,0.5-2.7,0.8-4.6c0.4-2.9,0.4-4.1,0.4-8.3
		c-0.1-4.7-0.3-7.1-1-10c-0.2-0.7-0.3-1.7-0.4-2.2s-0.2-1-0.3-1c-0.2,0-0.5-0.9-0.8-2.5c-0.1-0.6-0.5-1.6-0.8-2.2
		c-0.3-0.7-0.6-1.5-0.7-1.9c-0.1-0.3-0.4-1-0.7-1.5c-0.3-0.5-0.6-1.1-0.7-1.4c-0.3-1-1.2-2.8-2.2-4.3c-0.6-0.8-1.2-1.9-1.5-2.4
		c-0.6-1.1-1.8-2.7-3.2-4.1c-0.6-0.7-1.3-1.5-1.5-1.8c-0.4-0.7-2.7-3.1-3.3-3.5c-0.2-0.2-1-0.8-1.7-1.5s-1.6-1.4-2-1.7
		s-1.1-0.8-1.6-1.1S85.5,9.8,85,9.5s-1.2-0.8-1.6-1.2c-0.5-0.5-4.5-2.7-5-2.7c-0.1,0-0.6-0.2-1.2-0.5s-1.4-0.6-1.9-0.7
		c-0.4-0.1-1-0.4-1.2-0.5c-0.2-0.2-0.5-0.3-0.7-0.3s-0.6-0.1-0.9-0.3c-1.4-0.6-3.8-1.4-5.1-1.6c-0.8-0.1-1.7-0.3-2-0.4
		C65.1,1.2,64,1,63,0.9s-2.4-0.3-3.1-0.4C59-0.1,56.9-0.1,54.9-0.1z"/>
</g>
<g>
	<path class="st2" d="M56.7,21.8c0.5,0.1,2,0.3,3.2,0.4c1.3,0.1,2.4,0.3,2.5,0.5c0.1,0.2,2,0.8,3.8,1.3c0.7,0.2,4.2,1.9,6.5,3.2
		c0.4,0.2,1.2,0.9,1.8,1.6c0.6,0.7,1.5,1.4,1.9,1.6c0.7,0.4,3,2.7,3,3c0,0.1,0.2,0.4,0.5,0.8c1.5,1.7,2,2.3,2.5,3.1
		c0.3,0.5,0.6,0.9,0.6,1c0,0.2,1.6,3.6,1.9,4c0.1,0.2,0.4,0.9,0.5,1.5c0.6,2.5,0.9,3.3,1.2,3.6c0.2,0.2,0.3,1,0.4,2.4
		c0.1,1.1,0.2,2.9,0.3,3.8c0.2,1.3,0.2,2,0,3.3c-0.1,0.9-0.3,2.5-0.4,3.6c-0.1,1.3-0.3,2.2-0.5,2.5c-0.2,0.3-0.5,1.3-0.8,2.2
		c-0.4,1.6-2.8,6.6-3.4,7.3C82.2,72.6,82,72.9,82,73c0,0.1-0.1,0.3-0.3,0.5c-0.6,0.6-3.6,4.2-3.8,4.6c-0.1,0.2-0.8,0.8-1.4,1.2
		c-0.6,0.4-1.5,1.2-2,1.6c-0.5,0.5-1.1,1-1.5,1.2c-0.4,0.2-0.9,0.6-1.2,0.8c-0.2,0.2-0.6,0.4-0.8,0.4c-0.2,0-1.3,0.5-2.5,1.2
		c-1.4,0.8-2.7,1.3-3.7,1.5c-0.8,0.2-1.9,0.5-2.3,0.7c-0.9,0.4-5.2,0.8-8.5,0.8c-2.6,0-7-0.5-7.9-0.9c-0.4-0.2-1.4-0.5-2.2-0.7
		c-0.8-0.2-1.9-0.6-2.5-0.9c-0.6-0.3-1.1-0.5-1.2-0.5s-0.5-0.3-1.1-0.6c-0.5-0.3-1.2-0.7-1.5-0.7c-0.3-0.1-0.5-0.2-0.6-0.3
		c-0.1-0.1-0.6-0.4-1.2-0.8c-0.6-0.4-1.7-1.2-2.3-1.8c-0.7-0.6-1.5-1.4-1.9-1.6c-0.4-0.3-1.1-1-1.5-1.5c-0.4-0.6-1.3-1.7-1.9-2.4
		C27.6,74,27,73.2,27,73c-0.1-0.2-0.3-0.6-0.5-0.8c-1.1-1.2-2.9-5.3-4-9c-1.4-4.8-1.2-12.6,0.4-18c0.7-2.5,3.1-7.8,3.8-8.2
		c0.1-0.1,0.4-0.4,0.6-0.8c0.2-0.4,0.9-1.3,1.5-2c0.7-0.8,1.2-1.5,1.2-1.6c0-0.3,1.3-1.5,2.6-2.4c0.5-0.4,1.4-1.1,2-1.7
		c0.6-0.6,1.4-1.3,1.8-1.5c1.1-0.7,6-3,6.3-3c0.1,0,0.6-0.2,1.1-0.3s1.3-0.4,1.8-0.6c0.6-0.1,1.3-0.4,1.6-0.6c0.4-0.2,1.1-0.3,2-0.3
		c0.8,0,2.3-0.1,3.5-0.3C55,21.5,55.4,21.5,56.7,21.8z M49.8,28.3c-1.1,0.6-2.4,1.8-2.8,2.5c-0.2,0.3-0.5,0.6-0.6,0.7
		c-0.2,0.1-0.7,0.9-1.1,1.8c-1.7,3.5-1.9,4.2-1.2,4.2c0.2,0,0.3,0.1,0.3,0.2c0,0.3,6.3,1.2,7.2,1c1-0.2,1.1-1,1.2-5.8
		c0-5,0.1-4.8-1.9-5.1C50.7,27.8,50.2,28,49.8,28.3z M57,28.4c-0.3,0.3-0.3,0.9-0.3,5c0,5.7-0.1,5.5,2.8,5.3
		c1.9-0.1,4.2-0.5,4.4-0.8c0.1-0.1,0.3-0.2,0.4-0.3c0.5-0.2,0.5-0.6-0.5-2.4c-1.6-3.4-2.1-4-3.9-5.9C59,28.2,57.6,27.8,57,28.4z
		 M66.9,31.3c0,0.2,0.1,0.8,0.3,1.2c0.2,0.4,0.4,0.9,0.4,1c0,0.5,1.1,2.4,1.5,2.6c0.8,0.4,3-0.2,3.4-1.1c0.2-0.3,0.1-0.5-0.4-0.9
		c-0.3-0.3-1.1-1-1.6-1.5c-0.6-0.6-1.4-1.1-2.1-1.4C67.1,30.8,66.9,30.8,66.9,31.3z M39.9,31.5c-0.6,0.3-0.9,0.6-2.7,2.2
		c-0.8,0.7-0.8,0.8-0.7,1.3c0.3,0.8,1.5,1.3,2.5,1c0.7-0.2,0.8-0.4,1.5-1.9c0.8-1.8,0.9-2.5,0.5-2.6C40.7,31.2,40.5,31.2,39.9,31.5z
		 M73.7,39c-2.5,0.9-2.6,1-2.9,1.7c-0.3,0.6-0.3,0.9,0.2,3.2c0.3,1.4,0.5,3.1,0.5,3.9c0,0.8,0.1,1.4,0.2,1.5
		c0.1,0.1,0.2,0.7,0.3,1.4c0.2,2.1,0.2,2.1,5,2.2l4,0.1l0.3-0.6c0.3-0.7,0.1-2.3-0.6-5.2c-0.5-2.2-2.6-6.4-3.7-7.6
		C75.8,38.4,75.4,38.4,73.7,39z M32.5,39c-0.3,0.3-0.8,0.8-0.9,1.1c-0.2,0.3-0.5,0.8-0.8,1.1c-0.3,0.3-0.6,1-0.8,1.5
		c-0.2,0.5-0.5,1.2-0.7,1.4c-0.4,0.6-1.2,3.8-1.5,5.9c-0.3,1.6-0.2,1.7,0.1,2.1c0.4,0.4,0.6,0.4,3.8,0.4c3.3,0,3.4-0.1,3.9-0.5
		c0.5-0.5,0.5-0.7,0.7-3.1c0.1-1.4,0.2-2.7,0.3-3c0.6-1.4,0.7-2,0.9-3.5c0.3-2.2,0.1-2.5-2.1-3.3C33.5,38.4,33.3,38.4,32.5,39z
		 M63.5,42.1c-0.6,0.1-1.2,0.3-1.3,0.4C62,42.6,61,42.8,59.7,43c-3.3,0.3-3.1,0-3.2,4.6c0,2.1,0.1,4,0.2,4.2
		c0.1,0.3,0.4,0.6,0.9,0.7c0.9,0.3,8.8,0.3,9.5,0.1c0.3-0.1,0.6-0.4,0.7-0.7c0.3-0.8-0.3-7.7-0.7-8c-0.1-0.1-0.3-0.5-0.5-0.9
		c-0.3-0.8-0.9-1.2-1.6-1C64.8,41.9,64.1,42,63.5,42.1z M42,41.9c-0.2,0.1-0.4,0.7-0.4,1.2c-0.1,0.5-0.2,0.9-0.3,0.9
		c-0.2,0-0.4,0.6-0.8,4.2c-0.3,3.1-0.3,3.3,0,3.8l0.3,0.5l5.4-0.1c2.9,0,5.5-0.1,5.7-0.2c0.7-0.2,0.8-1.1,0.8-4.7
		c0-4.6,0.2-4.5-3.5-4.7c-1.4-0.1-2.7-0.3-2.7-0.4c-0.2-0.3-2-0.7-3.6-0.9C42.5,41.6,42.2,41.8,42,41.9z M72.3,57.3
		c-0.4,0.4-0.5,0.7-0.5,2c0,0.8-0.2,1.5-0.3,1.5c-0.1,0-0.2,0.7-0.2,1.4c0,0.8-0.2,2.2-0.4,3.1c-0.3,1.2-0.4,1.9-0.3,2.5
		c0.2,0.8,0.3,0.9,1.6,1.6c2.2,1.2,3.1,1.4,4.1,1.1c1-0.3,1.3-0.8,2.2-2.8c0.3-0.8,0.8-1.8,1.1-2.3c0.3-0.4,0.6-1.1,0.6-1.5
		c0.1-0.4,0.3-1.3,0.5-1.9c0.5-1.4,0.8-4.6,0.4-5c-0.2-0.3-0.8-0.3-4.3-0.3C72.9,56.8,72.8,56.8,72.3,57.3z M57,57.2
		c-0.5,0.4-0.5,0.6-0.6,3.9l-0.1,3.5l0.6,0.6c0.5,0.6,0.7,0.6,2.8,0.7c1.2,0.1,2.8,0.3,3.4,0.5c2,0.5,2.5,0.4,3.3-0.4
		c0.4-0.4,0.7-0.8,0.7-1c0-0.2,0.6-5.3,0.8-6.4c0.1-0.5,0-0.9-0.3-1.3l-0.4-0.6l-4.9,0C57.6,56.7,57.5,56.7,57,57.2z M40.5,57.1
		l-0.4,0.5l0.4,3.8c0.2,2.1,0.5,3.9,0.6,3.9c0.1,0.1,0.3,0.4,0.5,0.7c0.3,0.5,0.4,0.6,1.3,0.4c0.5-0.1,1.3-0.2,1.7-0.4
		c0.4-0.2,2-0.4,3.5-0.4c3.1-0.2,4-0.4,4.3-1.1c0.3-0.7,0.3-6,0-6.7c-0.4-1.2-0.9-1.3-6.5-1.2l-5,0L40.5,57.1z M27.9,56.7
		c-0.5,0.4-0.4,2.1,0.1,4.1c0.2,0.9,0.5,2.2,0.7,2.8c0.1,0.7,0.4,1.3,0.6,1.5c0.2,0.2,0.4,0.6,0.5,0.9c0.1,0.3,0.4,0.8,0.6,1.2
		c0.3,0.4,0.5,0.8,0.5,1c0,0.1,0.1,0.3,0.2,0.3c0.1,0,0.3,0.3,0.4,0.6c0.3,0.6,1,1,1.7,1c0.4,0,2.2-0.8,3.8-1.6
		c0.4-0.2,0.7-1.2,0.5-2.3c-0.1-1-0.7-2.9-0.9-3.1c-0.1-0.1-0.2-1.3-0.2-2.9c-0.1-2.7-0.1-2.8-0.7-3.3l-0.6-0.6l-3.3,0
		C28.8,56.4,28.1,56.5,27.9,56.7z M56.7,70.1c-0.3,0.4-0.3,1.3-0.4,5.7c0,3.8,0,5.3,0.2,5.5c0.5,0.5,1.5,0.3,2.7-0.7
		c0.6-0.5,1.1-1,1.1-1.1c0-0.1,0.3-0.5,0.7-0.9c0.4-0.4,0.9-1.1,1-1.4c0.2-0.4,0.5-0.8,0.7-1.1c0.9-1,1.9-3.5,1.8-4.4
		c-0.1-0.9-0.5-1.1-3.2-1.4c-1.2-0.1-2.3-0.3-2.6-0.4C57.8,69.5,57,69.6,56.7,70.1z M46.9,70.1c-3.3,0.4-3.8,0.6-3.8,1.7
		c0,0.4,0.1,0.9,0.2,1c0.1,0.1,0.3,0.7,0.5,1.3c0.3,1,1.1,2.3,2.2,3.5c0.2,0.3,0.6,0.8,0.8,1.2c0.2,0.4,1,1.2,1.7,1.8
		c1.1,0.9,1.4,1.1,2.1,1.1c0.5,0,1.1-0.1,1.3-0.3c0.5-0.3,0.5-0.4,0.5-5.5c0-5,0-5.2-0.4-5.7C51.6,69.5,51.7,69.5,46.9,70.1z
		 M68.4,73.4c-0.4,0.8-0.8,1.8-1,2.3c-0.1,0.4-0.5,1.1-0.8,1.4C66,77.9,66,78.8,66.5,79c0.5,0.1,1.6-0.4,3.7-1.9
		c0.8-0.5,1.5-1,1.5-1c0.1,0,0.3-0.2,0.6-0.4c0.8-0.8,0.4-2.4-0.6-2.4c-0.2,0-0.4-0.1-0.4-0.2c-0.1-0.2-1.6-1-2-1.1
		C69.2,71.9,68.8,72.5,68.4,73.4z M36.3,73.3c-0.7,0.7-0.7,0.8-0.4,1c0.2,0.1,0.3,0.4,0.3,0.5c0,0.2,2.6,2.3,3.4,2.7
		c0.6,0.3,1.3,0.1,1.1-0.3c-0.1-0.2-0.3-1-0.6-1.7c-0.3-0.7-0.7-1.7-1-2.2c-0.5-0.8-0.6-0.9-1.3-0.8C37.3,72.5,36.8,72.8,36.3,73.3z
		"/>
</g>
</svg>
