<?xml version="1.0" encoding="utf-8"?>
<!-- Generator: Adobe Illustrator 19.2.0, SVG Export Plug-In . SVG Version: 6.00 Build 0)  -->
<svg version="1.1" id="Layer_1" xmlns="http://www.w3.org/2000/svg" xmlns:xlink="http://www.w3.org/1999/xlink" x="0px" y="0px"
	 viewBox="0 0 100 100" style="enable-background:new 0 0 100 100;" xml:space="preserve">
<style type="text/css">
	.st0{fill:#FFFFFF;fill-opacity:0;}
	.st1{fill:#FFFFFF;}
</style>
<g id="Layer_4">
	<rect class="st0" width="100" height="100"/>
</g>
<g id="Layer_3">
	<path id="XMLID_113_" class="st1" d="M86.5,28.1c-2.7,1.2-5.6,2-8.7,2.3c3.1-1.8,5.5-4.7,6.6-8.2c-2.9,1.7-6.1,2.9-9.6,3.6
		c-2.7-2.9-6.7-4.7-11-4.7c-8.3,0-15.1,6.6-15.1,14.8c0,1.2,0.1,2.3,0.4,3.4c-12.5-0.6-23.6-6.5-31-15.5c-1.3,2.2-2,4.7-2,7.5
		c0,5.1,2.7,9.7,6.7,12.3c-2.5-0.1-4.8-0.7-6.8-1.9c0,0.1,0,0.1,0,0.2c0,1.9,0.4,3.7,1,5.4c1.8,4.7,6,8.2,11.1,9.2
		c-1.3,0.3-2.6,0.5-4,0.5c-1,0-1.9-0.1-2.8-0.3c1.9,5.9,7.5,10.2,14.1,10.3c-5.2,4-11.6,6.4-18.7,6.4c-1.2,0-2.4-0.1-3.6-0.2
		c6.7,4.2,14.6,6.7,23.1,6.7c23.5,0,38-16.3,41.8-33.2c0.7-3,1-6,1-9c0-0.6,0-1.3,0-1.9C81.9,33.7,84.5,31.1,86.5,28.1z"/>
</g>
</svg>
