<?xml version="1.0" encoding="utf-8"?>
<!-- Generator: Adobe Illustrator 19.2.0, SVG Export Plug-In . SVG Version: 6.00 Build 0)  -->
<svg version="1.1" xmlns="http://www.w3.org/2000/svg" xmlns:xlink="http://www.w3.org/1999/xlink" x="0px" y="0px"
	 viewBox="0 0 100 100" style="enable-background:new 0 0 100 100;" xml:space="preserve">
<style type="text/css">
	.st0{opacity:0;fill:#FFFFFF;}
	.st1{fill:#FFFFFF;}
</style>
<g id="Layer_4">
	<rect class="st0" width="100" height="100"/>
</g>
<g id="Layer_2">
	<g>
		<path class="st1" d="M50.7,86c-5.2,0-8.8,0.1-12.3,0c-3.2-0.1-6.4-0.1-9.5-0.9c-4-1-7.5-3-10.2-6.2c-2.6-3.2-3.9-6.9-4.4-10.9
			c-0.3-3-0.5-6.1-0.5-9.1c0-6,0-12,0-18c0-3,0.1-6,0.6-9c0.9-5.5,3.4-10,8-13.2c2.8-1.9,5.9-3,9.3-3.3c7.2-0.8,14.5-0.4,21.7-0.5
			c3.1,0,6.2,0,9.3,0.1c3.3,0.2,6.6,0.4,9.7,1.6c3.4,1.3,6.3,3.4,8.4,6.3c2.3,3.2,3.5,6.8,3.8,10.7c0.7,9.2,0.3,18.5,0.3,27.7
			c0,2.8-0.1,5.7-0.7,8.5c-0.8,4.1-2.5,7.7-5.6,10.6c-2.5,2.4-5.5,3.8-8.8,4.6c-2,0.5-4.1,0.6-6.1,0.7C58.8,86.1,53.9,85.9,50.7,86z
			 M78.4,50.4c0-4.4,0.1-8.7-0.1-13.1c-0.1-2.2-0.2-4.4-0.8-6.5c-0.7-2.2-1.7-4.1-3.4-5.7c-2.4-2.2-5.3-3.1-8.4-3.4
			c-3.3-0.3-6.7-0.3-10-0.3c-5.7,0-11.4-0.1-17.1,0.1c-2.3,0.1-4.6,0.1-6.8,0.5c-3.2,0.5-6,1.9-8.1,4.6c-1.8,2.3-2.5,5-2.8,7.9
			c-0.3,2.7-0.3,5.5-0.3,8.3c-0.1,6.9-0.1,13.8,0.1,20.7c0.1,2,0.2,4,0.7,6c0.7,2.8,2.1,5.1,4.3,6.9c2.1,1.7,4.6,2.4,7.2,2.8
			c2.7,0.3,5.4,0.3,8.1,0.4c7.1,0,14.1,0.1,21.2-0.1c1.8-0.1,3.6-0.2,5.4-0.5c2.8-0.5,5.3-1.7,7.3-3.8c1.7-1.9,2.6-4.1,3.1-6.5
			c0.6-2.9,0.5-5.9,0.6-8.8C78.5,56.6,78.4,53.5,78.4,50.4z"/>
		<path class="st1" d="M49.3,68.7c-9.9,0.1-18.3-8.1-18.2-18.4c0.1-10.1,8.2-18.2,18.4-18.2c10.1,0,18.2,8.2,18.2,18.3
			C67.7,60.5,59.5,68.9,49.3,68.7z M49.4,62.2c6.5,0,11.8-5.3,11.7-11.7c0-6.5-5.2-11.7-11.7-11.7c-6.5-0.1-11.8,5.3-11.7,11.8
			C37.7,57,42.9,62.1,49.4,62.2z"/>
		<path class="st1" d="M72.7,31.5c0,2.4-1.9,4.3-4.3,4.3c-2.4,0-4.4-2-4.4-4.3c0-2.4,1.9-4.4,4.3-4.4C70.8,27.2,72.7,29,72.7,31.5z"
			/>
	</g>
</g>
</svg>
