<?xml version="1.0" encoding="utf-8"?>
<!-- Generator: Adobe Illustrator 19.2.0, SVG Export Plug-In . SVG Version: 6.00 Build 0)  -->
<svg version="1.1" id="Layer_1" xmlns="http://www.w3.org/2000/svg" xmlns:xlink="http://www.w3.org/1999/xlink" x="0px" y="0px"
	 viewBox="0 0 67.2 48" style="enable-background:new 0 0 67.2 48;" xml:space="preserve">
<style type="text/css">
	.st0{fill:#4A4A4A;}
</style>
<path class="st0" d="M4.8,9.6h57.6c2.6,0,4.8-2.2,4.8-4.8S65,0,62.4,0H4.8C2.2,0,0,2.2,0,4.8S2.2,9.6,4.8,9.6z M62.4,19.2H4.8
	C2.2,19.2,0,21.4,0,24s2.2,4.8,4.8,4.8h57.6c2.6,0,4.8-2.2,4.8-4.8S65,19.2,62.4,19.2z M62.4,38.4H4.8c-2.6,0-4.8,2.2-4.8,4.8
	C0,45.8,2.2,48,4.8,48h57.6c2.6,0,4.8-2.2,4.8-4.8C67.2,40.6,65,38.4,62.4,38.4z"/>
</svg>
