<?xml version="1.0" encoding="utf-8"?>
<!-- Generator: Adobe Illustrator 19.2.0, SVG Export Plug-In . SVG Version: 6.00 Build 0)  -->
<svg version="1.1" id="Layer_1" xmlns="http://www.w3.org/2000/svg" xmlns:xlink="http://www.w3.org/1999/xlink" x="0px" y="0px"
	 viewBox="0 0 109.2 109.2" style="enable-background:new 0 0 109.2 109.2;" xml:space="preserve">
<style type="text/css">
	.st0{fill:#010101;}
	.st1{fill:#D75327;}
	.st2{fill:#FFFFFF;}
</style>
<g>
	<path class="st0" d="M29.1,25.3c0.1,0.1,0.1,0.8,0,1.8c-0.2,1.4-0.4,58.2-0.3,59.7c0.1,0.9-0.3,1.2-1.4,0.8c-1-0.3-2.1-1.3-2.6-2.1
		c-0.2-0.5-0.3-4.6-0.1-29.2l0.2-28.6l0.5-0.8C26.1,25.8,28.4,24.7,29.1,25.3z"/>
</g>
<g>
	<path class="st1" d="M54.9-0.1c-1.7,0-3.3,0-4.3,0.1c-3.9,0.4-5.7,0.6-6.7,0.9c-0.5,0.2-1.3,0.3-1.6,0.3l0,0
		c-0.6,0-4.5,1.2-4.7,1.4c-0.1,0.1-0.4,0.2-0.8,0.3s-1.1,0.3-1.5,0.5s-0.9,0.4-1,0.4l0,0c-0.2,0-0.8,0.3-1.5,0.6
		C32.2,4.7,31.5,5,31.4,5l0,0c-0.4,0-4,1.8-4.5,2.3c-0.3,0.3-0.6,0.5-0.7,0.5l0,0c0,0-1,0.6-2.1,1.4c-1.1,0.7-2.5,1.7-3.1,2.1
		s-1.4,1-1.7,1.3c-0.3,0.3-1.1,1.1-1.8,1.7c-1.6,1.3-2.8,2.5-3.2,3.3c-0.4,0.5-1.7,2.1-3,3.6c-0.5,0.5-1.1,1.3-1.3,1.7
		s-1.1,1.7-1.8,2.8c-0.7,1.1-1.3,2.1-1.3,2.2c0,0.4-0.7,1.7-0.9,1.7l0,0c-0.1,0-0.2,0.1-0.2,0.3c0,0.1-0.3,0.8-0.7,1.4
		c-0.4,0.6-0.8,1.5-0.9,2S3.7,34.6,3.5,35c-0.5,0.9-1.3,3.6-2,6.9C1.3,43,1,44.1,0.9,44.1c-0.3,0.2-0.9,6-0.9,9.8
		C0,57.6,0.5,64,0.8,64.3c0.2,0.1,0.5,1.6,0.8,3.2c0.3,1.9,2.5,8.3,3.2,9.3C5,77.1,5.3,77.6,5.4,78c0.3,0.8,2.4,4.7,2.7,5.2
		c0.2,0.2,0.5,0.8,0.8,1.3c0.2,0.5,0.9,1.5,1.5,2.1s1.3,1.5,1.6,1.9c1.2,1.8,2.9,3.9,3.4,4.2c0.3,0.2,1,0.8,1.6,1.3
		c0.5,0.5,1.4,1.3,1.9,1.8s1.6,1.4,2.5,2c0.9,0.7,1.6,1.3,1.6,1.4s0.3,0.3,0.6,0.5c0.4,0.1,1,0.5,1.4,0.8s0.8,0.5,1,0.5
		c0.1,0,0.5,0.2,0.8,0.5s1.5,0.9,2.7,1.5c1.2,0.5,2.3,1.2,2.4,1.4c0.3,0.4,2.2,1.2,4.5,1.9c0.7,0.2,1.9,0.6,2.6,0.8
		c0.7,0.2,1.8,0.5,2.4,0.5c0.6,0.1,1.6,0.3,2.1,0.4c1,0.3,5.5,0.8,9.2,1.1c0.4,0,0.8,0,1.3,0c3.2,0,8.8-0.5,10.8-1
		c0.6-0.2,1.6-0.3,2.1-0.4c2.4-0.3,8.9-2.3,10-3.2c0.3-0.3,1.4-0.8,2.4-1.3c1.9-0.9,3.9-2,4.3-2.3c0.2-0.1,0.6-0.4,1-0.6
		s1-0.6,1.4-1s0.8-0.7,0.9-0.7l0,0c0.1,0,1-0.7,2-1.6c1-0.8,2.3-2,2.9-2.5c2.1-1.8,2.8-2.5,4-4.1c0.7-0.9,1.3-1.7,1.3-1.7
		c0.6-0.6,2.3-2.7,2.7-3.4c0.5-0.9,2-3.3,2.3-3.4c0.1-0.1,0.5-0.8,0.8-1.5c0.4-0.8,0.9-2,1.3-2.6c0.6-1.2,0.9-2.1,2.2-5.7
		c0.4-1.1,0.8-2.3,1-2.7c0.2-0.3,0.3-0.9,0.3-1.1c0-0.3,0.1-1,0.3-1.6c0.2-0.7,0.5-2.7,0.8-4.6c0.4-2.9,0.4-4.1,0.4-8.3
		c-0.1-4.7-0.3-7.1-1-10c-0.2-0.7-0.3-1.7-0.4-2.2s-0.2-1-0.3-1c-0.2,0-0.5-0.9-0.8-2.5c-0.1-0.6-0.5-1.6-0.8-2.2
		c-0.3-0.7-0.6-1.5-0.7-1.9c-0.1-0.3-0.4-1-0.7-1.5c-0.3-0.5-0.6-1.1-0.7-1.4c-0.3-1-1.2-2.8-2.2-4.3c-0.6-0.8-1.2-1.9-1.5-2.4
		c-0.6-1.1-1.8-2.7-3.2-4.1c-0.6-0.7-1.3-1.5-1.5-1.8c-0.4-0.7-2.7-3.1-3.3-3.5c-0.2-0.2-1-0.8-1.7-1.5s-1.6-1.4-2-1.7
		s-1.1-0.8-1.6-1.1S85.5,9.8,85,9.5s-1.2-0.8-1.6-1.2c-0.5-0.5-4.5-2.7-5-2.7c-0.1,0-0.6-0.2-1.2-0.5s-1.4-0.6-1.9-0.7
		c-0.4-0.1-1-0.4-1.2-0.5c-0.2-0.2-0.5-0.3-0.7-0.3s-0.6-0.1-0.9-0.3c-1.4-0.6-3.8-1.4-5.1-1.6c-0.8-0.1-1.7-0.3-2-0.4
		C65.1,1.2,64,1,63,0.9s-2.4-0.3-3.1-0.4C59-0.1,56.9-0.1,54.9-0.1z"/>
</g>
<g>
	<path class="st2" d="M69.3,21.5L69.3,21.5c1.1-0.2,2.9,0.4,3.2,0.9c0.2,0.3,0.7,0.5,1.2,0.6c1.2,0.3,4,3.3,4.5,5
		c0.3,0.7,0.8,2.3,1.3,3.6c0.8,2,0.9,2.5,0.8,4.6c-0.1,1.3-0.1,3.2-0.1,4.3c0,1.2-0.3,2.7-0.5,3.5c-0.4,0.7-0.7,2.1-0.7,2.9
		c-0.1,0.8-0.4,1.6-0.7,1.9c-0.4,0.3-1.3,2.3-2.4,4.6c-1.2,2.6-2.7,5.3-4.4,7.7c-1.4,2-2.6,3.8-2.6,4.1c-0.1,0.3-1.8,2.4-3.8,4.8
		c-2,2.3-4.1,4.7-4.5,5.3c-0.4,0.6-2.5,2.4-4.8,4c-3.3,2.4-4.5,3.1-6.9,3.9c-1.4,0.5-2.7,0.8-4,1.1c-3.8,0.6-7.6,0.5-9.9-0.5
		c-2.4-1.1-5.1-3.2-5.6-4.6c-0.7-2-0.5-3,1.3-5.5c0.9-1.3,2.5-3.7,3.5-5.3c2.3-3.8,3.1-4.5,5.4-5h0.1c1.8-0.3,1.9-0.3,4.4,1.3
		c2.2,1.3,3.6,1.9,4.8,1.6c0.5-0.1,0.9-0.3,1.3-0.5c0.6-0.4,1.4-1.1,1.8-1.6c0.9-1.1,2.2-2.2,3.5-3.3c0.6-0.5,1.7-1.8,2.4-2.9
		c0.7-1.1,2-3.1,2.8-4.3c0.8-1.3,1.7-2.9,2.1-3.7c0.3-0.8,1-2.3,1.4-3.4c0.9-2,0.9-3.6,0.1-4c-0.2-0.1-1.3-1-2.3-1.9
		c-1-0.9-2.2-2-2.7-2.2c-0.5-0.5-0.8-1.1-1-2.1c-0.2-0.8-0.1-1.5,0-1.5l0,0l0,0c0.2,0,0.4-0.6,0.6-1.4c0.3-0.8,1.5-2.8,3.4-5.1
		c1.6-2.1,3.4-4.1,3.8-4.7c0.5-0.5,1.1-1.2,1.5-1.4C68.2,21.9,68.9,21.6,69.3,21.5z"/>
</g>
</svg>
