<?xml version="1.0" encoding="utf-8"?>
<!-- Generator: Adobe Illustrator 19.2.0, SVG Export Plug-In . SVG Version: 6.00 Build 0)  -->
<svg version="1.1" id="Layer_1" xmlns="http://www.w3.org/2000/svg" xmlns:xlink="http://www.w3.org/1999/xlink" x="0px" y="0px"
	 viewBox="0 0 109.2 109.2" style="enable-background:new 0 0 109.2 109.2;" xml:space="preserve">
<style type="text/css">
	.st0{fill:#FFFFFF;}
	.st1{fill:#D75327;}
</style>
<g>
	<path class="st0" d="M56.2,24.7c2,0.2,5.8,1.4,6.6,2.1c0.2,0.1,0.6,0.3,0.9,0.4c0.3,0.1,0.8,0.4,1.1,0.7c0.3,0.3,1.2,1,1.9,1.6
		c0.8,0.6,1.4,1.2,1.4,1.3c0,0.1,0.3,0.5,0.7,0.9c0.4,0.4,0.7,0.8,0.7,0.9c0,0.1,0.3,0.8,0.6,1.4c1.3,2.7,2,5.2,2,7.7
		c0,1.7-0.3,3.9-0.7,4.9c-0.1,0.4-0.4,1.2-0.5,1.7s-0.4,1.3-0.6,1.7s-0.6,1.2-0.8,1.8c-0.2,0.6-0.6,1.3-0.8,1.5
		c-0.2,0.2-0.4,0.5-0.4,0.7c0,0.1-0.2,0.5-0.4,0.7c-0.2,0.3-0.6,0.8-0.9,1.2c-0.2,0.4-0.6,0.8-0.8,1c-0.2,0.2-0.5,0.6-0.6,0.9
		c-0.2,0.4-1.1,1.5-2.1,2.5s-1.8,2-1.9,2.2c-0.2,0.5-2.3,2.6-2.9,2.9c-0.3,0.1-0.9,0.8-1.5,1.4c-1.2,1.5-1.7,1.7-2.8,1.2
		c-0.4-0.2-0.8-0.4-0.8-0.5s-0.9-1.1-2-2.2c-2.3-2.3-6.3-6.9-7.1-8.1c-0.3-0.4-0.6-0.8-0.7-0.8c-0.1,0-0.3-0.3-0.4-0.6
		c-0.1-0.3-0.4-0.8-0.7-1c-0.3-0.3-0.6-0.8-0.7-1.2c-0.1-0.4-0.7-1.7-1.2-2.8s-1.1-2.5-1.2-3.1c-0.1-0.6-0.4-1.4-0.6-1.8
		c-0.6-1.2-0.8-4.2-0.6-6.2c0.1-0.9,0.3-1.8,0.4-2c0.1-0.1,0.5-0.9,0.7-1.7c0.3-0.8,0.7-1.6,0.8-1.8s0.4-0.7,0.6-1.2
		c0.5-1.2,1.8-3,2.6-3.4c0.3-0.2,0.6-0.4,0.6-0.5s0.5-0.5,1.1-0.9s1.1-0.8,1.1-0.9s0.3-0.3,0.7-0.4c0.3-0.1,0.8-0.3,1-0.5
		c0.5-0.4,5.1-1.7,6.3-1.8C54.9,24.7,55.8,24.7,56.2,24.7z M52.5,31.8c-0.3,0.2-0.6,0.4-0.7,0.5c-0.1,0.1-0.4,0.2-0.8,0.4
		c-0.3,0.1-1.3,0.9-2,1.6c-1.5,1.5-2.2,2.9-2.5,4.9c-0.1,1.2,0.2,3.4,0.6,4.3c0.2,0.3,0.3,0.7,0.3,0.8c0,0.4,1.6,2,2.6,2.8
		c0.5,0.3,1,0.7,1,0.8c0.3,0.4,1.7,0.8,3.2,0.9c1.9,0.2,3.8-0.1,4.4-0.7c0.2-0.2,0.4-0.4,0.5-0.4c0.8-0.3,2.1-1.4,2.3-1.7
		c0.1-0.2,0.4-0.6,0.6-1c0.3-0.3,0.7-1.2,0.9-2s0.5-1.7,0.6-2.2c0.2-0.7,0.1-1-0.2-2.1c-0.2-0.7-0.5-1.7-0.6-2.2
		c-0.3-1.1-2.3-3.2-3.6-3.7c-0.5-0.2-0.9-0.4-0.9-0.5s-0.8-0.5-1.8-0.9C55.8,31.2,53.1,31.4,52.5,31.8z"/>
</g>
<g>
	<path class="st0" d="M66.3,69.2c0.8,0.3,1.9,0.7,2.5,0.8c1.3,0.4,2.9,1.3,4,2.3c0.4,0.4,0.8,0.7,0.9,0.7c0.3,0,1.1,1.4,1.2,2.2
		c0.3,1.2-0.5,4.3-1.1,4.3c-0.1,0-0.6,0.4-1.1,0.8c-0.4,0.4-1.7,1.2-2.7,1.8c-1.5,0.8-2.5,1.1-4.7,1.5c-4.6,0.9-5.2,1-11.5,0.9
		c-5.9-0.1-6-0.1-9.1-0.8c-1.7-0.4-3.2-0.8-3.2-0.9s-0.2-0.2-0.4-0.2s-0.4-0.1-0.5-0.2s-0.9-0.5-1.6-0.8c-2-0.8-3-1.7-3.8-3.3
		c-1-1.9-1-3.2,0-4.6c0.9-1.2,2.4-2.5,3.6-3c3-1.3,5.9-2.2,7.2-2.2c0.6,0,0.9,0.1,1.3,0.6c0.3,0.3,0.9,0.8,1.2,0.9
		c0.5,0.2,0.7,0.4,0.7,0.9c0,0.7-0.6,1.2-1.7,1.4c-0.4,0.1-0.8,0.2-0.8,0.3c0,0.1-0.6,0.2-1.3,0.3c-1.7,0.2-5.2,1.3-5.7,1.8
		c-1,1.2-0.7,2.3,0.7,2.9c0.4,0.2,0.8,0.4,0.8,0.5c0,0.3,1.8,1,2.8,1.2c0.6,0.1,1.7,0.4,2.3,0.6c1.2,0.4,1.6,0.5,8.6,0.5
		c6.3,0,7.4,0,7.9-0.3c0.3-0.2,1.3-0.4,2.1-0.5c1.3-0.2,3.3-0.9,3.6-1.2c0.1-0.1,0.4-0.3,0.8-0.4c1.1-0.4,1.2-0.6,1.2-1.5
		c0-1.4-1.1-2.2-4.4-3c-0.9-0.2-2-0.4-2.4-0.4s-0.8-0.1-0.8-0.2s-0.3-0.2-0.8-0.3c-0.4-0.1-0.9-0.2-1-0.4c-0.4-0.5-0.1-1.5,0.6-1.9
		c0.3-0.2,0.8-0.6,1.1-0.9C63.5,68.5,64.4,68.5,66.3,69.2z"/>
</g>
<g>
	<path class="st1" d="M55.3,24.7c0.3,0,0.7,0,0.9,0c2,0.2,5.8,1.4,6.6,2.1c0.2,0.1,0.6,0.3,0.9,0.4c0.3,0.1,0.8,0.4,1.1,0.7
		c0.3,0.3,1.2,1,1.9,1.6c0.8,0.6,1.4,1.2,1.4,1.3c0,0.1,0.3,0.5,0.7,0.9c0.4,0.4,0.7,0.8,0.7,0.9c0,0.1,0.3,0.8,0.6,1.4
		c1.3,2.7,2,5.2,2,7.7c0,1.7-0.3,3.9-0.7,4.9c-0.1,0.4-0.4,1.2-0.5,1.7s-0.4,1.3-0.6,1.7s-0.6,1.2-0.8,1.8c-0.2,0.6-0.6,1.3-0.8,1.5
		c-0.2,0.2-0.4,0.5-0.4,0.7c0,0.1-0.2,0.5-0.4,0.7c-0.2,0.3-0.6,0.8-0.9,1.2c-0.2,0.4-0.6,0.8-0.8,1c-0.2,0.2-0.5,0.6-0.6,0.9
		c-0.2,0.4-1.1,1.5-2.1,2.5s-1.8,2-1.9,2.2c-0.2,0.5-2.3,2.6-2.9,2.9c-0.3,0.1-0.9,0.8-1.5,1.4c-0.8,1-1.3,1.4-1.9,1.4
		c-0.3,0-0.6-0.1-0.9-0.2c-0.4-0.2-0.8-0.4-0.8-0.5s-0.9-1.1-2-2.2c-2.3-2.3-6.3-6.9-7.1-8.1c-0.3-0.4-0.6-0.8-0.7-0.8
		c-0.1,0-0.3-0.3-0.4-0.6c-0.1-0.3-0.4-0.8-0.7-1c-0.3-0.3-0.6-0.8-0.7-1.2c-0.1-0.4-0.7-1.7-1.2-2.8s-1.1-2.5-1.2-3.1
		c-0.1-0.6-0.4-1.4-0.6-1.8c-0.6-1.2-0.8-4.2-0.6-6.2c0.1-0.9,0.3-1.8,0.4-2c0.1-0.1,0.5-0.9,0.7-1.7c0.3-0.8,0.7-1.6,0.8-1.8
		s0.4-0.7,0.6-1.2c0.5-1.2,1.8-3,2.6-3.4c0.3-0.2,0.6-0.4,0.6-0.5s0.5-0.5,1.1-0.9s1.1-0.8,1.1-0.9s0.3-0.3,0.7-0.4
		c0.3-0.1,0.8-0.3,1-0.5c0.5-0.4,5.1-1.7,6.3-1.8C54.6,24.7,55,24.7,55.3,24.7z M45.9,68.5L45.9,68.5c0.6,0,0.9,0.1,1.3,0.6
		c0.3,0.3,0.9,0.8,1.2,0.9c0.5,0.2,0.7,0.4,0.7,0.9c0,0.7-0.6,1.2-1.7,1.4c-0.4,0.1-0.8,0.2-0.8,0.3c0,0.1-0.6,0.2-1.3,0.3
		c-1.7,0.2-5.2,1.3-5.7,1.8c-1,1.2-0.7,2.3,0.7,2.9c0.4,0.2,0.8,0.4,0.8,0.5c0,0.3,1.8,1,2.8,1.2c0.6,0.1,1.7,0.4,2.3,0.6
		c1.2,0.4,1.6,0.5,8.6,0.5c1.3,0,2.4,0,3.4,0c3.4,0,4.2-0.1,4.6-0.3c0.3-0.2,1.3-0.4,2.1-0.5c1.3-0.2,3.3-0.9,3.6-1.2
		c0.1-0.1,0.4-0.3,0.8-0.4c1.1-0.4,1.2-0.6,1.2-1.5c0-1.4-1.1-2.2-4.4-3c-0.9-0.2-2-0.4-2.4-0.4s-0.8-0.1-0.8-0.2s-0.3-0.2-0.8-0.3
		c-0.4-0.1-0.9-0.2-1-0.4c-0.4-0.5-0.1-1.5,0.6-1.9c0.3-0.2,0.8-0.6,1.1-0.9c0.3-0.4,0.7-0.5,1.3-0.5c0.6,0,1.3,0.2,2.2,0.5
		c0.8,0.3,1.9,0.7,2.5,0.8c1.3,0.4,2.9,1.3,4,2.3c0.4,0.4,0.8,0.7,0.9,0.7c0.3,0,1.1,1.4,1.2,2.2c0.3,1.2-0.5,4.3-1.1,4.3l0,0
		c-0.1,0-0.6,0.4-1.1,0.8c-0.4,0.2-1.7,1-2.7,1.6c-1.5,0.8-2.5,1.1-4.7,1.5c-3.5,0.7-4.7,0.9-8,0.9c-0.9,0-2.1,0-3.5,0
		c-5.9-0.1-6-0.1-9.1-0.8c-1.7-0.4-3.2-0.8-3.2-0.9s-0.2-0.2-0.4-0.2s-0.4-0.1-0.5-0.2s-0.9-0.5-1.6-0.8c-2-0.8-3-1.7-3.8-3.3
		c-1-1.9-1-3.2,0-4.6c0.9-1.2,2.4-2.5,3.6-3C41.7,69.4,44.6,68.5,45.9,68.5z M55.9,0c-2.3,0-4.9,0.1-7.3,0.4
		c-1.6,0.2-3.3,0.4-3.7,0.5s-1.3,0.3-2.1,0.4c-0.8,0.1-1.5,0.3-1.5,0.4c-0.1,0.1-1,0.4-2.1,0.7s-2.6,0.7-3.2,1
		c-0.6,0.3-1.3,0.5-1.6,0.6c-0.6,0.2-5.4,2.5-5.5,2.7c-0.1,0.1-0.3,0.2-0.5,0.4c-5,3-6.1,3.7-7.7,5.3c-0.9,0.9-1.8,1.7-2.2,1.8
		c-0.6,0.3-2.9,2.4-2.9,2.7s-1.7,2.4-2,2.4l0,0c-0.1,0-0.5,0.3-0.8,0.7c-0.3,0.4-0.9,1.3-1.3,1.9c-0.9,1.2-1.2,1.6-2.2,3.2
		c-0.4,0.6-0.8,1.2-0.9,1.2C8,26.5,5,32.6,4.7,33.5c-0.1,0.4-0.4,1.1-0.6,1.5c-0.2,0.4-0.5,1.2-0.6,1.7s-0.3,1-0.4,1.1
		c-0.2,0.3-1.1,3-1.1,3.5c0,0.2-0.1,0.9-0.3,1.4c-1.3,4.3-1.5,17-0.3,22.4c0.2,0.8,0.4,2,0.6,2.8c0.3,1.6,0.7,2.9,0.9,2.9
		c0.1,0,0.2,0.1,0.2,0.3c0,0.4,1.5,4.2,2.1,5.4c0.3,0.5,0.9,1.9,1.3,3c0.5,1.1,1.1,2.3,1.3,2.6c0.3,0.2,0.5,0.5,0.5,0.6
		s0.3,0.6,0.7,1.1s0.7,1,0.7,1.1s0.5,0.8,1.1,1.6c0.6,0.8,1.1,1.5,1.1,1.6s0.5,0.8,1.2,1.4c1.2,1.2,3.1,3.4,3.9,4.4
		c0.2,0.3,0.5,0.6,0.6,0.6c0.2,0,2.1,1.6,4.1,3.4c0.4,0.4,1.3,1,1.8,1.4s1.6,1.1,2.4,1.6c1.6,1.1,1.5,1,3,1.8
		c0.7,0.3,1.2,0.6,1.2,0.7s0.1,0.2,0.3,0.2c0.1,0,0.8,0.3,1.4,0.6c0.6,0.3,1.6,0.7,2.1,0.9c0.6,0.2,1.3,0.5,1.6,0.6
		c0.3,0.2,1.4,0.5,2.4,0.7c1,0.3,1.9,0.5,2,0.6s1.1,0.4,2.1,0.5c1,0.2,2.1,0.4,2.4,0.5c0.3,0.1,0.9,0.2,1.4,0.2s0.9,0.1,1,0.2
		c0.2,0.3,4,0.7,7.8,0.7c0.2,0,0.4,0,0.6,0c3.6,0,7.6-0.3,7.6-0.7c0-0.1,0.4-0.2,0.8-0.2l0,0l0,0c0.5,0,1.2-0.1,1.7-0.3
		c0.4-0.2,1.4-0.4,2.1-0.4c0.7-0.1,1.6-0.3,2-0.5s1.2-0.5,1.8-0.6c0.6-0.1,1.7-0.4,2.3-0.7c0.7-0.3,1.5-0.5,1.9-0.6
		c0.3-0.1,1.2-0.4,1.9-0.8c0.7-0.4,1.4-0.7,1.6-0.7l0,0c0.2,0,0.3-0.1,0.3-0.2s0.5-0.4,1.2-0.8c0.7-0.3,1.6-0.8,2.1-1.2
		c0.5-0.3,1.5-0.9,2.1-1.2c0.7-0.3,1.7-1.1,2.3-1.6c0.6-0.6,1.4-1.2,1.8-1.4c0.4-0.2,1.1-0.7,1.7-1.3c0.6-0.5,1.3-1.1,1.5-1.4
		c0.6-0.5,4.2-4.4,5-5.2c0.3-0.3,0.6-0.9,0.8-1.3c0.2-0.3,0.6-0.8,0.8-1c1-0.8,5.3-8,5.3-8.9c0-0.1,0.1-0.3,0.1-0.3l0,0
		c0.2,0,1.2-1.8,1.4-2.6c0.1-0.4,0.3-1,0.5-1.3s0.6-1.4,0.8-2.3c0.2-0.9,0.5-1.8,0.6-2s0.3-0.9,0.4-1.6s0.3-1.9,0.5-2.6
		c0.1-0.7,0.4-2.2,0.5-3.4c0.1-1.1,0.4-2.2,0.5-2.3c0.3-0.4,0.4-10.6,0.1-10.8c-0.1-0.1-0.4-1.2-0.6-2.6c-0.2-1.3-0.4-2.6-0.5-2.9
		c-0.1-0.2-0.2-0.9-0.3-1.6c-0.1-0.6-0.4-1.8-0.6-2.6c-0.3-0.8-0.5-1.7-0.5-1.9c0-0.3-0.2-1-0.5-1.5c-0.3-0.6-0.6-1.5-0.8-2
		c-0.2-0.6-0.6-1.5-0.9-1.9c-0.3-0.5-1.1-2-1.7-3.3s-1.4-2.7-1.7-3.1s-0.6-1-0.8-1.4c-0.2-0.3-0.6-0.9-1-1.3s-0.7-0.7-0.7-0.8
		c0-0.3-3.4-4.5-4.7-5.8c-0.5-0.5-1.4-1.3-1.9-1.8c-0.6-0.5-1.1-0.9-1.2-1c-0.2-0.2-2.9-2.5-4.1-3.4c-0.3-0.3-1-0.7-1.4-0.9
		C83,7.8,82.2,7.4,82,7c-0.2-0.2-0.9-0.6-1.6-1s-2-1-2.9-1.4s-1.6-0.7-1.8-0.7c-0.1,0-0.6-0.2-1-0.4c-0.4-0.2-1.7-0.6-2.8-1
		c-0.6,0-1.7-0.4-1.9-0.6c-0.2-0.1-1.1-0.4-1.9-0.5C67.3,1.3,66.3,1.1,66,1c-0.7-0.2-3.7-0.6-6.7-0.9C58.3,0.1,57.1,0,55.9,0z"/>
</g>
<g>
	<path class="st1" d="M55.6,31.3c0.4,0,0.7,0,0.9,0.1c1,0.4,1.8,0.8,1.8,0.9s0.4,0.3,0.9,0.5c1.3,0.5,3.3,2.5,3.6,3.7
		c0.1,0.5,0.4,1.5,0.6,2.2c0.3,1.1,0.4,1.5,0.2,2.1c-0.1,0.4-0.4,1.4-0.6,2.2c-0.2,0.8-0.6,1.6-0.9,2c-0.3,0.3-0.6,0.8-0.6,1
		c-0.1,0.3-1.5,1.3-2.3,1.7c-0.1,0-0.3,0.2-0.5,0.4c-0.5,0.5-1.9,0.7-3.4,0.7c-0.3,0-0.7,0-1,0c-1.5-0.1-2.9-0.5-3.2-0.9
		c-0.1-0.1-0.5-0.4-1-0.8c-1.1-0.7-2.6-2.4-2.6-2.8c0-0.1-0.1-0.5-0.3-0.8c-0.4-0.9-0.8-3.1-0.6-4.3c0.3-2,1-3.4,2.5-4.9
		c0.8-0.7,1.7-1.5,2-1.6c0.4-0.1,0.7-0.3,0.8-0.4c0.1-0.1,0.4-0.3,0.7-0.5C52.9,31.5,54.5,31.3,55.6,31.3z"/>
</g>
</svg>
