<?xml version="1.0" encoding="utf-8"?>
<!-- Generator: Adobe Illustrator 19.2.0, SVG Export Plug-In . SVG Version: 6.00 Build 0)  -->
<svg version="1.1" id="Layer_1" xmlns="http://www.w3.org/2000/svg" xmlns:xlink="http://www.w3.org/1999/xlink" x="0px" y="0px"
	 viewBox="0 0 109.2 109.2" style="enable-background:new 0 0 109.2 109.2;" xml:space="preserve">
<style type="text/css">
	.st0{fill:#FFFFFF;}
	.st1{fill:#D75327;}
</style>
<g>
	<path class="st0" d="M68.7,21c1.7,0.2,3.8,1,4.3,1.6c0.3,0.3,0.7,0.7,0.9,0.8c0.5,0.4,1.4,1.8,1.8,3c0.3,1,0.4,2.3,0.3,28.7
		c-0.1,24.2-0.2,27.9-0.4,29.3c-0.3,1.5-0.6,2.1-1.8,3.9c-0.6,0.8-2,1.5-4,2.1l-2.1,0.5l-13.1-0.1c-12.3-0.1-13.2-0.1-14.9-0.5
		c-1.8-0.4-3.1-1-3.8-1.6c-0.8-0.7-2.1-2.8-2.3-3.8c-0.2-0.8-0.2-6.7-0.1-29.4l0-28.5l0.5-1c0.8-1.9,2.3-3.6,3.6-4.2
		c2.2-1,2.2-1,16.6-1C61.5,20.9,68.1,21,68.7,21z M42.1,26.6c-1.7,0.9-1.5-0.9-1.7,24.5c-0.1,21.7-0.1,22.6,0.2,23.2
		c0.8,1.3,0.3,1.2,13.9,1.3l12.3,0.1l0.8-0.5c0.5-0.3,0.8-0.7,1-1.1c0.1-0.4,0.2-8.6,0.3-23.3c0.1-25,0.2-23.5-1.2-24.2
		c-0.6-0.4-1.7-0.4-12.7-0.4l-12-0.1L42.1,26.6z M52.7,80.4c-0.3,0.2-0.9,0.5-1.2,0.7c-2.2,1.5-1.2,5.7,1.5,6.5
		c1.1,0.3,2.8,0.1,3.6-0.5c1.1-0.7,1.9-2.1,1.9-3.2C58.6,80.9,55.4,79,52.7,80.4z"/>
</g>
<g>
	<path class="st1" d="M47.7,19.6c1.7,0,3.9,0,6.4,0c7.4,0,14,0.1,14.6,0.2c1.7,0.2,3.8,1,4.3,1.6c0.3,0.3,0.7,0.7,0.9,0.8
		c0.5,0.4,1.4,1.8,1.8,3c0.3,1,0.4,2.3,0.3,28.7c-0.1,24.2-0.2,27.9-0.4,29.3c-0.3,1.5-0.6,2.1-1.8,3.9c-0.6,0.8-2,1.5-4,2.1
		l-2.1,0.5l-13.1-0.1c-12.3-0.1-13.2-0.1-14.9-0.5c-1.8-0.4-3.1-1-3.8-1.6c-0.8-0.7-2.1-2.8-2.3-3.8c-0.2-0.8-0.2-6.7-0.1-29.4
		l0-28.5l0.5-1c0.8-1.9,2.3-3.6,3.6-4.2C39.4,19.8,39.7,19.6,47.7,19.6z M55.5,0.1c-2.2,0-4.9,0.1-7.7,0.4C46,0.7,44.4,0.9,44.3,1
		s-0.6,0.3-1.2,0.4c-3.1,0.7-6.8,1.7-7.9,2.2C34.6,3.8,34.1,4,34,4l0,0c-0.1,0-0.7,0.2-1.2,0.5c-0.6,0.3-1.4,0.7-2,0.8
		c-0.5,0.1-1,0.4-1,0.4c0,0.1-0.4,0.4-1,0.6c-0.5,0.2-1.2,0.7-1.6,0.9c-0.3,0.3-0.7,0.5-0.8,0.5l0,0c-0.1,0-0.5,0.2-0.8,0.5
		c-0.3,0.3-1,0.7-1.5,0.9s-1.2,0.7-1.6,1.1c-0.4,0.4-1.3,1.1-2,1.7c-2.3,1.7-4.3,3.6-5.4,4.8c-0.6,0.7-1.4,1.6-1.9,2.1
		c-0.4,0.4-0.9,1.1-1.2,1.5c-0.2,0.4-0.8,1.1-1.3,1.7c-0.6,0.5-1.1,1.3-1.3,1.7c-0.2,0.4-0.6,1-0.8,1.3s-0.9,1.4-1.4,2.5
		s-1,2-1.1,2.1S5.9,30,5.7,30.4c-0.1,0.4-0.5,1-0.7,1.3c-0.2,0.3-0.6,1.1-0.9,1.8c-0.2,0.7-0.6,1.6-0.8,2.1
		c-0.6,1.4-1.6,4.9-1.6,5.3c0,0.6-0.7,3.1-0.8,3.2c-0.1,0.1-0.3,1.5-0.5,3.2C0.1,49.6,0,51.5,0.1,55c0.1,4.5,0.4,9.5,0.7,9.7
		c0.2,0.1,0.5,1.4,0.7,2.4c0.2,1.2,1.4,5.3,1.9,6.3c0.2,0.4,0.5,1.2,0.6,1.7c0.1,0.5,0.3,1.1,0.5,1.2c0.1,0.2,0.5,0.8,0.7,1.4
		c0.3,0.6,0.6,1.2,0.6,1.2c0.1,0.1,0.5,0.9,1,1.8c0.4,0.9,1.1,2.1,1.4,2.6c0.3,0.5,0.7,1.2,0.9,1.6c0.3,0.6,1.2,1.7,3.5,4.4
		c0.3,0.3,1.1,1.3,1.7,2.2c0.6,0.9,1.5,1.8,1.9,2c0.4,0.3,0.7,0.5,0.7,0.6s0.3,0.4,0.7,0.7c0.4,0.3,1.3,1.1,2,1.7
		c1.6,1.6,3.9,3.2,5.9,4.2c0.5,0.2,1.1,0.6,1.4,0.9c0.8,0.7,2.9,1.9,3.8,2.2c0.4,0.1,1,0.4,1.2,0.7c0.6,0.5,3.3,1.5,7.3,2.6
		c0.6,0.2,1.2,0.4,1.3,0.5s0.6,0.2,1.1,0.3c0.5,0.1,1.6,0.3,2.4,0.4c3,0.6,7.1,0.8,11,0.8c3.8,0,7.5-0.3,10-0.8
		c0.9-0.2,1.9-0.4,2.2-0.4l0,0l0,0c0.3,0,0.5-0.1,0.5-0.2c0-0.2,0.9-0.4,3.3-0.9c0.8-0.2,1.9-0.5,2.5-0.8s1.2-0.5,1.4-0.5l0,0
		c0.4,0,5.7-2.7,6.2-3.1c0.4-0.3,2.3-1.5,3.6-2.1c1-0.5,3.3-2.1,3.6-2.4c0.3-0.5,2.5-2.4,3.5-3.2c0.4-0.3,1.2-1,1.7-1.5
		c1.1-1.2,4.8-5.4,4.8-5.6c0-0.1,0.4-0.6,0.8-1.1c0.5-0.6,0.8-1.1,0.8-1.2s0.4-0.7,0.8-1.3c0.5-0.6,0.8-1.3,0.8-1.4s0.2-0.4,0.4-0.5
		c0.5-0.3,3.1-5.7,3.1-6.4c0-0.2,0.3-0.8,0.6-1.5c0.3-0.6,0.7-1.7,0.9-2.4c0.2-0.7,0.5-1.7,0.8-2.2c0.2-0.5,0.4-1.2,0.4-1.4
		s0.1-1,0.3-1.6c0.6-2.3,1.2-7.5,1.2-11.8c0-4.4-0.3-7.8-1-10.7c-0.2-0.9-0.4-1.9-0.4-2.3c0-0.3-0.2-0.9-0.4-1.3
		c-0.2-0.4-0.6-1.6-0.9-2.6s-0.7-2.2-0.9-2.6c-0.2-0.4-0.5-1.1-0.5-1.5c-0.1-0.3-0.3-0.7-0.4-0.9c-0.1-0.1-0.4-0.6-0.6-1.1
		c-1.1-2.6-1.6-3.8-2-4.1c-0.2-0.2-0.4-0.6-0.5-0.8c-0.1-0.2-0.4-0.8-0.7-1.1c-0.3-0.4-0.7-1-0.9-1.4c-0.2-0.3-0.8-1.2-1.4-1.9
		c-2.8-3.7-5.5-6.7-6.8-7.7c-0.3-0.2-1-0.8-1.4-1.2s-1.2-1.1-1.7-1.5s-1-0.8-1-0.9c0-0.1-0.2-0.2-0.3-0.2c-0.1,0-0.6-0.3-1-0.7
		c-0.5-0.4-1.1-0.8-1.4-1s-1.2-0.7-1.9-1.2c-0.8-0.5-1.8-1.2-2.4-1.4c-0.5-0.3-1-0.6-1-0.6c0-0.1-0.2-0.2-0.5-0.3
		C79,5.7,78,5.3,77.1,5c-3.3-1.4-4.9-2-6-2.2c-0.6-0.1-1.5-0.4-1.9-0.6c-0.1-0.1-1.2-0.4-2-0.5s-1.6-0.3-1.6-0.4
		c-0.1-0.2-3.9-0.8-7-1.1C57.7,0.1,56.7,0.1,55.5,0.1z"/>
</g>
<g>
	<path class="st1" d="M42.9,26.1l12,0.1c11,0.1,12.1,0.1,12.7,0.4c1.4,0.7,1.3-0.8,1.2,24.2c-0.1,14.6-0.2,22.8-0.3,23.3
		c-0.1,0.4-0.5,0.8-1,1.1l-0.8,0.5l-12.3-0.1c-13.5-0.1-13,0-13.9-1.3c-0.4-0.6-0.4-1.5-0.2-23.2c0.2-25.4,0-23.6,1.7-24.5
		L42.9,26.1z"/>
</g>
<g>
	<path class="st1" d="M54.6,79.9c2.1,0,4,1.7,4,4c0,1.1-0.8,2.5-1.9,3.2c-0.6,0.4-1.6,0.6-2.5,0.6c-0.4,0-0.8,0-1.1-0.1
		c-2.8-0.8-3.7-5-1.5-6.5c0.3-0.2,0.8-0.5,1.2-0.7C53.3,80.1,54,79.9,54.6,79.9z"/>
</g>
</svg>
