<?xml version="1.0" encoding="utf-8"?>
<!-- Generator: Adobe Illustrator 19.2.0, SVG Export Plug-In . SVG Version: 6.00 Build 0)  -->
<svg version="1.1" id="Layer_1" xmlns="http://www.w3.org/2000/svg" xmlns:xlink="http://www.w3.org/1999/xlink" x="0px" y="0px"
	 viewBox="0 0 211.5 224.7" style="enable-background:new 0 0 211.5 224.7;" xml:space="preserve">
<style type="text/css">
	.st0{fill:#D75327;}
</style>
<polygon class="st0" points="188,77.9 208.5,105.2 207.3,0 131.7,74.8 168.5,70.7 "/>
<g>
	<path class="st0" d="M126.9,178.5L176.2,57c2.8-6.9,4.8-12.3,5.9-16.2s1.7-7.5,1.7-10.6c0-5,22.6-3.7,20.9-1
		c-1.8,2.7-3.5,6-5.2,9.9l-75.9,185.1h-9.8L41.5,49.7c-2.4-5.6-4.8-10.5-7.1-14.6c-2.3-4.1-4.9-7.5-7.7-10.1c-2.8-2.6-6-4.6-9.5-5.9
		c-3.5-1.3-7.7-2.1-12.6-2.5V5.7h91.3v10.9c-5.2,0-9.5,0.2-12.7,0.7c-3.3,0.5-5.8,1.2-7.7,2.2c-1.9,1-3.2,2.3-3.9,3.8
		c-0.7,1.5-1.1,3.2-1.1,5c0,2.6,0.5,5.6,1.4,9.1c0.9,3.5,2.7,8.4,5.3,15L126.9,178.5z"/>
</g>
</svg>
