<?xml version="1.0" encoding="utf-8"?>
<!-- Generator: Adobe Illustrator 19.2.0, SVG Export Plug-In . SVG Version: 6.00 Build 0)  -->
<svg version="1.1" id="Layer_1" xmlns="http://www.w3.org/2000/svg" xmlns:xlink="http://www.w3.org/1999/xlink" x="0px" y="0px"
	 viewBox="0 0 701.3 224.1" style="enable-background:new 0 0 701.3 224.1;" xml:space="preserve">
<style type="text/css">
	.st0{fill:#D75327;}
	.st1{fill:#4B4A4B;}
</style>
<polygon class="st0" points="183.5,77.9 203.9,105.2 202.8,0 127.2,74.8 163.9,70.7 "/>
<g>
	<path class="st0" d="M282.5,8.2c9.6,0,18.6,1.7,26.9,5c8.3,3.3,15.5,7.8,21.7,13.6c6.1,5.8,11,12.5,14.5,20.3
		c3.5,7.8,5.3,16.2,5.3,25.3c0,8.6-1.8,16.7-5.4,24.3c-3.6,7.6-8.4,14.2-14.6,19.8c-6.1,5.6-13.4,10-21.7,13.3
		c-8.3,3.3-17.2,4.9-26.7,4.9c-9.5,0-18.4-1.6-26.7-4.9c-8.3-3.3-15.6-7.7-21.8-13.3c-6.2-5.6-11-12.2-14.6-19.8
		c-3.5-7.6-5.3-15.7-5.3-24.3c0-9.1,1.8-17.5,5.3-25.3c3.5-7.8,8.3-14.6,14.5-20.3c6.1-5.8,13.4-10.3,21.7-13.6
		C263.9,9.9,272.9,8.2,282.5,8.2z M282.5,124.2c6.2,0,11.8-1.2,16.8-3.6c5-2.4,9.3-5.8,12.8-10.2c3.5-4.4,6.2-9.8,8.1-16.2
		c1.9-6.3,2.8-13.5,2.8-21.4c0-8.3-0.9-15.8-2.8-22.5c-1.9-6.7-4.6-12.4-8.1-17.1c-3.5-4.7-7.8-8.4-12.8-10.9
		c-5-2.5-10.6-3.8-16.8-3.8c-6.3,0-11.9,1.3-16.9,3.8c-5,2.5-9.2,6.1-12.7,10.9c-3.5,4.7-6.2,10.5-8.1,17.1
		c-1.9,6.7-2.8,14.2-2.8,22.5c0,7.9,0.9,15,2.8,21.4c1.9,6.3,4.6,11.7,8.1,16.2c3.5,4.4,7.8,7.8,12.7,10.2
		C270.5,123,276.2,124.2,282.5,124.2z"/>
	<path class="st0" d="M462.7,83.4c0,9.1-1,16.8-3,23.3c-2,6.5-5,11.8-9.2,15.9s-9.5,7.2-16.1,9.1c-6.6,1.9-14.4,2.9-23.6,2.9
		c-17.2,0-29.7-3.6-37.7-10.8c-7.9-7.2-11.9-18.7-11.9-34.5V45.5c0-4.2-0.1-7.7-0.2-10.5c-0.1-2.8-0.3-5.2-0.5-7.1
		c-0.2-1.9-0.5-3.5-0.9-4.7c-0.4-1.2-0.8-2.3-1.4-3.1c-1-1.5-2.3-2.5-4.2-3c-1.8-0.5-4.6-0.8-8.3-0.8V9.8h57.4v6.4
		c-4.5,0-7.8,0.2-9.9,0.7c-2.1,0.5-3.8,1.4-5,2.8c-0.7,0.9-1.4,1.9-1.8,3.1c-0.5,1.2-0.9,2.8-1.1,4.8c-0.3,2-0.5,4.4-0.6,7.3
		c-0.1,2.9-0.2,6.4-0.2,10.6v41.9c0,12.2,2.6,21.1,7.8,27c5.2,5.8,13.1,8.7,23.9,8.7c22,0,33-12.2,33-36.6v-37
		c0-4.5-0.1-8.3-0.2-11.5c-0.2-3.2-0.4-5.9-0.8-8.2c-0.4-2.2-0.9-4.1-1.4-5.6c-0.6-1.5-1.3-2.7-2.2-3.7c-1.5-1.5-3.4-2.6-5.8-3.3
		c-2.3-0.7-5.6-1-9.8-1V9.8h51.8v6.4c-3.9,0-7,0.3-9.1,0.9c-2.1,0.6-3.8,1.6-5,3.1c-0.9,1-1.5,2.2-2.1,3.8c-0.5,1.5-1,3.5-1.3,5.8
		c-0.3,2.3-0.6,5-0.7,8.2c-0.2,3.2-0.2,7-0.2,11.5V83.4z"/>
	<path class="st0" d="M596.2,133H485.9v-6.4c3.5-0.1,6.4-0.4,8.6-1c2.2-0.5,3.9-1.4,5.1-2.7c1.2-1.3,2-3.1,2.4-5.4
		c0.4-2.3,0.6-5.4,0.6-9.1V34.5c0-3.7-0.2-6.7-0.6-9c-0.4-2.3-1.1-4.1-2.2-5.4c-1.1-1.3-2.6-2.2-4.6-2.7c-2-0.5-4.6-0.8-7.8-1V9.8
		h55.2v6.4c-3.6,0.1-6.5,0.4-8.7,1c-2.2,0.5-3.9,1.5-5,2.9c-1.2,1.4-1.9,3.3-2.3,5.8c-0.4,2.5-0.6,5.7-0.6,9.8v67
		c0,4.5,0.5,8.1,1.4,11c0.9,2.8,2.5,5,4.7,6.6c2.2,1.5,5.2,2.6,9,3.2c3.7,0.6,8.4,0.9,13.9,0.9c6.2,0,11.4-0.4,15.5-1.1
		c4.2-0.7,7.7-2.2,10.5-4.2c2.8-2.1,5.1-4.9,6.8-8.4c1.7-3.5,3.1-8.1,4.3-13.8h6.4L596.2,133z"/>
	<path class="st0" d="M701.3,45h-6.9c-0.3-5.2-1.1-9.6-2.3-13c-1.2-3.5-3-6.2-5.2-8.3s-5-3.5-8.2-4.3c-3.2-0.8-6.9-1.2-11.2-1.2
		c-4.2,0-7.5,0.1-10,0.2c-2.5,0.2-4.4,0.4-5.8,0.8c-1.3,0.4-2.2,0.9-2.6,1.5c-0.4,0.6-0.6,1.4-0.6,2.4V107c0,3.4,0.2,6.3,0.7,8.8
		c0.5,2.5,1.5,4.5,3,6c1.5,1.5,3.7,2.7,6.6,3.5c2.9,0.8,6.7,1.3,11.4,1.4v6.4h-67v-6.4c4.8-0.1,8.6-0.6,11.5-1.4
		c2.9-0.8,5.1-2,6.6-3.5c1.5-1.5,2.6-3.5,3-6c0.5-2.5,0.7-5.4,0.7-8.8V23.1c0-1-0.2-1.8-0.6-2.4c-0.4-0.6-1.1-1.1-2.3-1.5
		c-1.2-0.4-2.9-0.6-5-0.8c-2.2-0.2-5-0.2-8.6-0.2c-3.8,0-7.5,0.2-11,0.6c-3.5,0.4-6.6,1.4-9.3,3.2c-2.7,1.8-4.8,4.4-6.5,8
		c-1.7,3.6-2.5,8.6-2.6,15.1h-6.2l1.6-35.2h125.3L701.3,45z"/>
</g>
<g>
	<path class="st0" d="M122.4,178.5L171.6,57c2.8-6.9,4.8-12.3,5.9-16.2s1.7-7.5,1.7-10.6c0-5,22.6-3.7,20.9-1
		c-1.8,2.7-3.5,6-5.2,9.9L119,224.1h-9.8L37,49.7c-2.4-5.6-4.8-10.5-7.1-14.6c-2.3-4.1-4.9-7.5-7.7-10.1c-2.8-2.6-6-4.6-9.5-5.9
		C9.1,17.9,4.9,17,0,16.7V5.7h91.3v10.9c-5.2,0-9.5,0.2-12.7,0.7c-3.3,0.5-5.8,1.2-7.7,2.2c-1.9,1-3.2,2.3-3.9,3.8
		c-0.7,1.5-1.1,3.2-1.1,5c0,2.6,0.5,5.6,1.4,9.1c0.9,3.5,2.7,8.4,5.3,15L122.4,178.5z"/>
</g>
<g>
	<path class="st1" d="M238.7,200.5c-2.2,2.9-4.7,5.1-7.6,6.3c-2.9,1.3-6,1.9-9.3,1.9c-3.5,0-6.6-0.6-9.5-1.8
		c-2.9-1.2-5.3-2.8-7.4-4.9s-3.6-4.6-4.8-7.6c-1.2-2.9-1.7-6.1-1.7-9.6s0.6-6.6,1.7-9.5c1.2-2.9,2.8-5.4,4.8-7.5s4.5-3.8,7.4-5
		c2.9-1.2,6-1.8,9.5-1.8c3.1,0,5.9,0.5,8.6,1.6c2.7,1.1,5,2.9,7,5.5l-3.5,2.9c-1.4-2.1-3.2-3.7-5.4-4.7c-2.2-1-4.4-1.5-6.8-1.5
		c-2.9,0-5.6,0.5-8,1.5c-2.4,1-4.4,2.4-6,4.2s-2.9,3.9-3.8,6.3c-0.9,2.4-1.3,5.1-1.3,7.9c0,2.8,0.4,5.4,1.3,7.9
		c0.9,2.4,2.2,4.5,3.8,6.3s3.7,3.2,6,4.2c2.4,1,5,1.5,8,1.5c1.2,0,2.3-0.1,3.6-0.4c1.2-0.3,2.4-0.7,3.6-1.3c1.2-0.6,2.3-1.3,3.4-2.2
		c1.1-0.9,2-1.9,2.8-3.2L238.7,200.5z"/>
	<path class="st1" d="M243.7,192.8c0-2.3,0.4-4.3,1.2-6.2c0.8-1.9,1.8-3.5,3.2-4.9c1.4-1.4,3-2.5,4.9-3.2c1.9-0.8,4-1.2,6.3-1.2
		c2.3,0,4.3,0.4,6.2,1.2c1.9,0.8,3.5,1.8,4.9,3.2c1.4,1.4,2.5,3,3.2,4.9c0.8,1.9,1.2,4,1.2,6.2c0,2.3-0.4,4.3-1.2,6.2
		c-0.8,1.9-1.8,3.5-3.2,4.9c-1.4,1.4-3,2.5-4.9,3.2c-1.9,0.8-4,1.2-6.2,1.2c-2.3,0-4.4-0.4-6.3-1.2c-1.9-0.8-3.6-1.8-4.9-3.2
		c-1.4-1.4-2.4-3-3.2-4.9C244.1,197.2,243.7,195.1,243.7,192.8z M247.5,192.8c0,1.7,0.3,3.2,0.8,4.7c0.5,1.5,1.3,2.8,2.3,3.8
		c1,1.1,2.3,2,3.7,2.6c1.5,0.6,3.1,1,4.9,1s3.4-0.3,4.9-1c1.5-0.6,2.7-1.5,3.7-2.6s1.8-2.4,2.3-3.8c0.5-1.5,0.8-3,0.8-4.7
		s-0.3-3.2-0.8-4.7c-0.5-1.5-1.3-2.8-2.3-3.8s-2.3-2-3.7-2.6c-1.5-0.6-3.1-1-4.9-1s-3.4,0.3-4.9,1s-2.7,1.5-3.7,2.6
		c-1,1.1-1.8,2.4-2.3,3.8C247.8,189.6,247.5,191.2,247.5,192.8z"/>
	<path class="st1" d="M283.4,186.4c0-0.6,0-1.2-0.1-2c0-0.8-0.1-1.6-0.1-2.4c0-0.8-0.1-1.6-0.1-2.3c0-0.7-0.1-1.2-0.1-1.6h3.8
		c0,1.1,0.1,2.2,0.1,3.2c0,1,0.1,1.7,0.2,2h0.2c0.8-1.6,2-3,3.8-4.2c1.8-1.2,3.9-1.8,6.3-1.8c2.3,0,4.2,0.4,5.6,1.1
		c1.5,0.7,2.6,1.7,3.4,2.8c0.8,1.2,1.4,2.5,1.7,4.1c0.3,1.5,0.5,3.1,0.5,4.7v17.6h-3.8v-17.4c0-1.2-0.1-2.4-0.3-3.5
		c-0.2-1.1-0.6-2.1-1.1-3c-0.5-0.9-1.3-1.6-2.2-2.1c-1-0.5-2.2-0.8-3.7-0.8c-1.4,0-2.7,0.2-4,0.7c-1.3,0.5-2.3,1.2-3.3,2.2
		c-0.9,1-1.6,2.3-2.2,3.8c-0.5,1.5-0.8,3.3-0.8,5.3v14.8h-3.8V186.4z"/>
	<path class="st1" d="M319,200.1c0.8,1.6,2,2.8,3.6,3.6s3.2,1.2,5,1.2c0.8,0,1.6-0.1,2.4-0.4c0.8-0.3,1.5-0.6,2.2-1.1
		c0.6-0.5,1.2-1,1.6-1.7c0.4-0.7,0.6-1.4,0.6-2.3c0-1.4-0.4-2.4-1.3-3.1c-0.9-0.7-2-1.2-3.2-1.6s-2.7-0.7-4.2-1
		c-1.5-0.3-2.9-0.7-4.2-1.3c-1.3-0.6-2.4-1.4-3.2-2.4c-0.9-1-1.3-2.5-1.3-4.4c0-1.5,0.3-2.7,0.9-3.8c0.6-1.1,1.4-2,2.3-2.7
		s2-1.2,3.2-1.6c1.2-0.3,2.4-0.5,3.6-0.5c2.4,0,4.5,0.4,6.3,1.3c1.8,0.9,3.1,2.3,4.1,4.2l-3.5,2c-0.7-1.4-1.6-2.4-2.7-3.1
		s-2.5-1.1-4.3-1.1c-0.7,0-1.4,0.1-2.1,0.3c-0.7,0.2-1.4,0.5-2,0.9c-0.6,0.4-1.1,0.9-1.5,1.5c-0.4,0.6-0.6,1.3-0.6,2
		c0,1.3,0.4,2.3,1.3,2.9c0.9,0.6,2,1.1,3.2,1.5c1.3,0.4,2.7,0.7,4.2,0.9c1.5,0.3,2.9,0.7,4.2,1.2c1.3,0.6,2.4,1.4,3.2,2.5
		c0.9,1.1,1.3,2.6,1.3,4.6c0,1.5-0.3,2.9-0.9,4c-0.6,1.1-1.4,2.1-2.4,2.8c-1,0.8-2.1,1.3-3.4,1.7c-1.3,0.4-2.6,0.6-4,0.6
		c-2.6,0-4.9-0.5-7-1.5c-2.1-1-3.7-2.5-4.9-4.5L319,200.1z"/>
	<path class="st1" d="M371.2,199.3c0,0.6,0,1.2,0.1,2c0,0.8,0.1,1.6,0.1,2.4c0,0.8,0.1,1.6,0.1,2.3c0,0.7,0.1,1.2,0.1,1.6h-3.8
		c0-1.1-0.1-2.2-0.1-3.2c0-1-0.1-1.7-0.2-2h-0.2c-0.8,1.6-2,3-3.8,4.2s-3.9,1.8-6.3,1.8c-2.3,0-4.2-0.4-5.7-1.1
		c-1.5-0.7-2.6-1.7-3.5-2.8c-0.8-1.2-1.4-2.5-1.7-4.1c-0.3-1.5-0.4-3.1-0.4-4.7v-17.6h3.8v17.4c0,1.2,0.1,2.4,0.3,3.5
		c0.2,1.1,0.6,2.1,1.1,3c0.5,0.9,1.3,1.6,2.2,2.1c1,0.5,2.2,0.8,3.7,0.8c1.4,0,2.7-0.2,4-0.7c1.3-0.5,2.3-1.2,3.3-2.2
		c0.9-1,1.6-2.3,2.2-3.8c0.5-1.5,0.8-3.3,0.8-5.3v-14.8h3.8V199.3z"/>
	<path class="st1" d="M382.4,159.2h3.8v48.4h-3.8V159.2z"/>
	<path class="st1" d="M411.7,181.5h-8.4v19.3c0,1.3,0.4,2.3,1.1,3.1c0.7,0.7,1.7,1.1,3,1.1c0.7,0,1.5-0.1,2.2-0.3
		c0.7-0.2,1.5-0.4,2.1-0.7l0.3,3.5c-0.7,0.3-1.6,0.5-2.5,0.7c-0.9,0.2-1.8,0.3-2.5,0.3c-1.4,0-2.5-0.2-3.5-0.6s-1.8-0.9-2.4-1.6
		c-0.6-0.7-1-1.5-1.3-2.4c-0.3-0.9-0.4-1.9-0.4-3v-19.3H393v-3.5h6.4v-8.5h3.8v8.5h8.4V181.5z"/>
	<path class="st1" d="M418.3,166.3c0-0.8,0.3-1.5,0.8-2c0.6-0.6,1.2-0.8,2-0.8s1.5,0.3,2,0.8c0.6,0.6,0.8,1.2,0.8,2
		c0,0.8-0.3,1.5-0.8,2c-0.6,0.6-1.2,0.8-2,0.8s-1.5-0.3-2-0.8C418.5,167.8,418.3,167.2,418.3,166.3z M419.2,178.1h3.8v29.6h-3.8
		V178.1z"/>
	<path class="st1" d="M433.9,186.4c0-0.6,0-1.2-0.1-2c0-0.8-0.1-1.6-0.1-2.4c0-0.8-0.1-1.6-0.1-2.3c0-0.7-0.1-1.2-0.1-1.6h3.8
		c0,1.1,0.1,2.2,0.1,3.2c0,1,0.1,1.7,0.2,2h0.2c0.8-1.6,2-3,3.8-4.2c1.8-1.2,3.9-1.8,6.3-1.8c2.3,0,4.2,0.4,5.6,1.1
		c1.5,0.7,2.6,1.7,3.4,2.8c0.8,1.2,1.4,2.5,1.7,4.1c0.3,1.5,0.5,3.1,0.5,4.7v17.6h-3.8v-17.4c0-1.2-0.1-2.4-0.3-3.5
		c-0.2-1.1-0.6-2.1-1.1-3c-0.5-0.9-1.3-1.6-2.2-2.1c-1-0.5-2.2-0.8-3.7-0.8c-1.4,0-2.7,0.2-4,0.7c-1.3,0.5-2.3,1.2-3.3,2.2
		c-0.9,1-1.6,2.3-2.2,3.8c-0.5,1.5-0.8,3.3-0.8,5.3v14.8h-3.8V186.4z"/>
	<path class="st1" d="M499.2,205.7c0,3.7-0.5,6.6-1.6,8.9s-2.4,4-4,5.2c-1.6,1.2-3.3,2.1-5.2,2.5c-1.8,0.4-3.5,0.6-5,0.6
		c-1.5,0-3-0.1-4.4-0.4c-1.4-0.3-2.8-0.7-4.1-1.2s-2.4-1.2-3.5-2c-1-0.8-2-1.6-2.7-2.6l3-2.8c1.4,1.9,3.1,3.3,5.1,4.2
		c2,0.9,4.2,1.3,6.5,1.3c2,0,3.6-0.3,5-0.8c1.3-0.5,2.5-1.2,3.3-2c0.9-0.8,1.6-1.8,2-2.8c0.5-1,0.9-2,1.1-3c0.2-1,0.4-2,0.4-2.8
		c0-0.9,0.1-1.6,0.1-2.2v-4.1h-0.1c-1.1,1.8-2.6,3.2-4.5,4.2c-1.9,1-4.1,1.5-6.7,1.5c-2.2,0-4.2-0.4-6.1-1.2c-1.9-0.8-3.6-1.9-5-3.3
		c-1.4-1.4-2.6-3-3.4-4.8c-0.8-1.8-1.2-3.8-1.2-5.9c0-2.1,0.4-4.1,1.2-5.9c0.8-1.8,2-3.4,3.4-4.8c1.4-1.4,3.1-2.5,5-3.3
		c1.9-0.8,4-1.2,6.1-1.2c2.6,0,4.8,0.5,6.7,1.5c1.9,1,3.4,2.4,4.5,4.2h0.1v-5h3.8V205.7z M495.5,192.5c0-1.6-0.3-3.1-0.9-4.6
		c-0.6-1.4-1.5-2.7-2.5-3.7c-1-1-2.3-1.9-3.7-2.5c-1.4-0.6-3-0.9-4.6-0.9c-1.6,0-3.1,0.3-4.6,0.9c-1.4,0.6-2.7,1.5-3.7,2.5
		c-1,1-1.9,2.3-2.5,3.7c-0.6,1.4-0.9,3-0.9,4.6c0,1.6,0.3,3.1,0.9,4.6c0.6,1.4,1.4,2.7,2.5,3.7c1,1,2.3,1.9,3.7,2.5
		c1.4,0.6,3,0.9,4.6,0.9c1.6,0,3.1-0.3,4.6-0.9c1.4-0.6,2.7-1.5,3.7-2.5c1-1,1.9-2.3,2.5-3.7C495.2,195.6,495.5,194.1,495.5,192.5z"
		/>
	<path class="st1" d="M563.7,204.7c-2.6,1.5-5.4,2.6-8.2,3.2c-2.8,0.6-5.7,0.9-8.7,0.9c-3.5,0-6.6-0.6-9.5-1.8
		c-2.9-1.2-5.3-2.8-7.4-4.9s-3.6-4.6-4.8-7.6c-1.2-2.9-1.7-6.1-1.7-9.6s0.6-6.6,1.7-9.5c1.2-2.9,2.8-5.4,4.8-7.5s4.5-3.8,7.4-5
		c2.9-1.2,6-1.8,9.5-1.8c6.7,0,12.2,2.1,16.3,6.3l-3.1,3.2c-0.7-0.8-1.5-1.6-2.5-2.3c-1-0.7-2.1-1.3-3.3-1.8s-2.4-0.9-3.7-1.2
		c-1.3-0.3-2.5-0.4-3.8-0.4c-2.9,0-5.6,0.5-8,1.5c-2.4,1-4.4,2.4-6,4.2s-2.9,3.9-3.8,6.3c-0.9,2.4-1.3,5.1-1.3,7.9
		c0,2.8,0.4,5.4,1.3,7.9c0.9,2.4,2.2,4.5,3.8,6.3s3.7,3.2,6,4.2c2.4,1,5,1.5,8,1.5c2.4,0,4.7-0.2,6.8-0.6c2.1-0.4,4.1-1.1,5.8-2.1
		V187h-10.9v-3.8h15.1V204.7z"/>
	<path class="st1" d="M575.1,186.4c0-0.6,0-1.2-0.1-2c0-0.8-0.1-1.6-0.1-2.4c0-0.8-0.1-1.6-0.1-2.3c0-0.7-0.1-1.2-0.1-1.6h3.8
		c0,1.1,0.1,2.2,0.1,3.2c0,1,0.1,1.7,0.2,2c1-1.7,2.2-3.2,3.8-4.3c1.5-1.1,3.4-1.7,5.6-1.7c0.4,0,0.8,0,1.1,0.1
		c0.4,0.1,0.7,0.1,1.1,0.2l-0.4,3.8c-0.5-0.2-1-0.3-1.5-0.3c-1.7,0-3.1,0.3-4.3,0.8c-1.2,0.5-2.2,1.3-3,2.2c-0.8,0.9-1.4,2-1.8,3.3
		c-0.4,1.3-0.6,2.6-0.6,4.1v16.1h-3.8V186.4z"/>
	<path class="st1" d="M593.6,192.8c0-2.3,0.4-4.3,1.2-6.2c0.8-1.9,1.8-3.5,3.2-4.9c1.4-1.4,3-2.5,4.9-3.2c1.9-0.8,4-1.2,6.3-1.2
		c2.3,0,4.3,0.4,6.2,1.2c1.9,0.8,3.5,1.8,4.9,3.2c1.4,1.4,2.5,3,3.2,4.9c0.8,1.9,1.2,4,1.2,6.2c0,2.3-0.4,4.3-1.2,6.2
		c-0.8,1.9-1.8,3.5-3.2,4.9c-1.4,1.4-3,2.5-4.9,3.2c-1.9,0.8-4,1.2-6.2,1.2c-2.3,0-4.4-0.4-6.3-1.2c-1.9-0.8-3.6-1.8-4.9-3.2
		c-1.4-1.4-2.4-3-3.2-4.9C593.9,197.2,593.6,195.1,593.6,192.8z M597.4,192.8c0,1.7,0.3,3.2,0.8,4.7c0.5,1.5,1.3,2.8,2.3,3.8
		c1,1.1,2.3,2,3.7,2.6c1.5,0.6,3.1,1,4.9,1s3.4-0.3,4.9-1c1.5-0.6,2.7-1.5,3.7-2.6s1.8-2.4,2.3-3.8c0.5-1.5,0.8-3,0.8-4.7
		s-0.3-3.2-0.8-4.7c-0.5-1.5-1.3-2.8-2.3-3.8s-2.3-2-3.7-2.6c-1.5-0.6-3.1-1-4.9-1s-3.4,0.3-4.9,1s-2.7,1.5-3.7,2.6
		c-1,1.1-1.8,2.4-2.3,3.8C597.7,189.6,597.4,191.2,597.4,192.8z"/>
	<path class="st1" d="M658.3,199.3c0,0.6,0,1.2,0.1,2c0,0.8,0.1,1.6,0.1,2.4c0,0.8,0.1,1.6,0.1,2.3c0,0.7,0.1,1.2,0.1,1.6h-3.8
		c0-1.1-0.1-2.2-0.1-3.2c0-1-0.1-1.7-0.2-2h-0.2c-0.8,1.6-2,3-3.8,4.2s-3.9,1.8-6.3,1.8c-2.3,0-4.2-0.4-5.7-1.1
		c-1.5-0.7-2.6-1.7-3.5-2.8c-0.8-1.2-1.4-2.5-1.7-4.1c-0.3-1.5-0.4-3.1-0.4-4.7v-17.6h3.8v17.4c0,1.2,0.1,2.4,0.3,3.5
		c0.2,1.1,0.6,2.1,1.1,3c0.5,0.9,1.3,1.6,2.2,2.1c1,0.5,2.2,0.8,3.7,0.8c1.4,0,2.7-0.2,4-0.7c1.3-0.5,2.3-1.2,3.3-2.2
		c0.9-1,1.6-2.3,2.2-3.8c0.5-1.5,0.8-3.3,0.8-5.3v-14.8h3.8V199.3z"/>
	<path class="st1" d="M668,178.1h3.8v5.2h0.1c0.6-1,1.3-1.9,2.2-2.7c0.9-0.7,1.9-1.4,2.9-1.9c1-0.5,2.1-0.9,3.3-1.1
		c1.2-0.2,2.3-0.4,3.4-0.4c2.3,0,4.3,0.4,6.2,1.2c1.9,0.8,3.5,1.8,4.9,3.2c1.4,1.4,2.5,3,3.2,4.9c0.8,1.9,1.2,4,1.2,6.2
		c0,2.3-0.4,4.3-1.2,6.2c-0.8,1.9-1.8,3.5-3.2,4.9c-1.4,1.4-3,2.5-4.9,3.2c-1.9,0.8-4,1.2-6.2,1.2c-1.1,0-2.2-0.1-3.4-0.4
		c-1.2-0.2-2.3-0.6-3.3-1.1c-1-0.5-2-1.1-2.9-1.9c-0.9-0.7-1.6-1.6-2.2-2.7h-0.1v19.8H668V178.1z M671.4,192.8c0,1.7,0.3,3.2,1,4.7
		s1.5,2.8,2.6,3.8c1.1,1.1,2.4,2,3.9,2.6c1.5,0.6,3.1,1,4.9,1c1.8,0,3.4-0.3,4.9-1c1.5-0.6,2.7-1.5,3.7-2.6c1-1.1,1.8-2.4,2.3-3.8
		c0.5-1.5,0.8-3,0.8-4.7s-0.3-3.2-0.8-4.7c-0.5-1.5-1.3-2.8-2.3-3.8c-1-1.1-2.3-2-3.7-2.6c-1.5-0.6-3.1-1-4.9-1
		c-1.8,0-3.4,0.3-4.9,1c-1.5,0.6-2.8,1.5-3.9,2.6c-1.1,1.1-2,2.4-2.6,3.8C671.8,189.6,671.4,191.2,671.4,192.8z"/>
</g>
</svg>
